<?xml version="1.0" standalone="no"?>
<!DOCTYPE svg PUBLIC "-//W3C//DTD SVG 20010904//EN"
 "http://www.w3.org/TR/2001/REC-SVG-20010904/DTD/svg10.dtd">
<svg version="1.0" xmlns="http://www.w3.org/2000/svg"
 width="1024.000000pt" height="1024.000000pt" viewBox="0 0 1024.000000 1024.000000"
 preserveAspectRatio="xMidYMid meet">

<g transform="translate(0.000000,1024.000000) scale(0.100000,-0.100000)"
fill="#000000" stroke="none">
<path d="M0 5120 l0 -5120 5120 0 5120 0 0 5120 0 5120 -5120 0 -5120 0 0
-5120z m5057 2919 c151 -57 164 -304 19 -370 -106 -48 -226 -2 -271 103 -29
70 -13 161 38 217 48 52 147 76 214 50z m435 -89 c26 -52 49 -99 51 -105 9
-22 16 5 23 93 l7 92 58 0 58 0 -5 -72 c-3 -40 -10 -106 -15 -146 -5 -40 -9
-97 -9 -125 0 -71 -7 -79 -66 -75 l-49 3 -50 103 c-27 56 -53 102 -57 102 -4
0 -8 -30 -8 -67 0 -107 -4 -113 -63 -113 l-50 0 6 152 c4 83 7 175 7 205 l0
54 57 -3 58 -3 47 -95z m-873 4 l31 -20 -23 -35 c-24 -35 -26 -35 -97 -23 -67
11 -109 -48 -88 -123 21 -78 94 -99 150 -43 16 17 33 30 36 30 4 0 22 -14 40
-31 l33 -30 -21 -30 c-41 -56 -131 -87 -202 -69 -110 30 -175 138 -148 250 14
60 62 116 115 136 52 19 134 13 174 -12z m2126 -247 c61 -37 118 -77 129 -87
18 -18 18 -19 -8 -53 l-27 -36 -67 43 c-116 73 -121 74 -143 46 -10 -14 -19
-27 -19 -30 0 -3 27 -22 60 -44 33 -21 60 -43 60 -49 0 -13 -40 -57 -51 -57
-5 0 -30 14 -56 30 -26 17 -53 30 -60 30 -10 0 -43 -48 -43 -64 0 -2 41 -30
90 -62 50 -32 90 -63 90 -69 0 -6 -12 -26 -28 -44 l-28 -33 -142 92 c-90 58
-139 96 -135 104 4 6 41 65 83 131 137 215 150 234 168 227 10 -3 67 -37 127
-75z m-2925 -6 l0 -49 -52 -12 c-58 -12 -88 -33 -88 -62 0 -29 22 -31 79 -8
28 11 70 20 93 20 34 0 47 -6 80 -40 40 -39 40 -41 36 -99 -8 -108 -85 -171
-209 -171 -88 0 -93 5 -73 64 15 43 19 47 41 41 32 -8 99 11 124 36 15 15 17
24 9 39 -14 25 -36 25 -95 0 -60 -26 -94 -25 -136 3 -63 42 -84 122 -49 188
27 49 127 97 208 98 32 1 32 1 32 -48z m-518 -258 c15 -15 28 -32 28 -39 0 -7
-35 -44 -77 -83 -75 -68 -77 -71 -63 -95 7 -14 18 -26 23 -26 10 0 105 75 124
99 11 13 17 11 43 -14 16 -16 30 -32 30 -36 0 -3 -28 -34 -62 -68 l-62 -61 24
-25 c13 -14 29 -25 35 -25 6 0 45 31 87 70 l75 69 42 -32 c22 -17 41 -34 41
-38 0 -7 -245 -227 -257 -231 -4 -2 -73 69 -153 157 -80 88 -148 162 -152 163
-16 7 -6 22 55 80 64 62 179 161 186 162 3 0 18 -12 33 -27z m3898 -38 c31
-16 88 -82 112 -129 l15 -29 -50 -25 c-28 -14 -52 -21 -54 -16 -22 64 -76 120
-106 108 -25 -9 -21 -34 15 -100 22 -42 32 -73 32 -107 1 -43 -3 -52 -35 -81
-68 -63 -162 -55 -235 18 -52 52 -80 132 -63 183 12 36 20 40 38 19 6 -8 25
-19 41 -26 26 -11 30 -18 30 -50 0 -43 26 -72 65 -72 48 0 49 15 10 102 -42
94 -43 144 -4 186 42 44 124 53 189 19z m-2217 -119 c29 -27 27 -55 -4 -74
-43 -27 -88 40 -54 78 23 25 27 25 58 -4z m355 2 c30 -30 -6 -96 -46 -84 -23
8 -47 50 -37 66 7 12 41 28 61 29 5 1 15 -4 22 -11z m312 -70 c24 -26 24 -28
4 -56 -18 -26 -41 -28 -66 -5 -21 19 -23 48 -5 68 18 21 43 18 67 -7z m-972
-16 c16 -21 15 -34 -2 -58 -14 -18 -17 -18 -43 -4 -31 17 -41 53 -22 76 14 17
48 10 67 -14z m1291 -101 c7 -13 6 -24 -5 -40 -20 -28 -61 -25 -81 6 -14 20
-13 24 11 48 21 21 29 24 46 15 11 -6 24 -19 29 -29z m1590 -90 c85 -119 131
-192 131 -205 0 -11 -79 -71 -84 -65 -1 2 -10 18 -20 34 -10 17 -29 45 -43 62
l-24 33 -72 -58 c-134 -108 -193 -152 -203 -152 -5 0 -23 23 -41 50 l-31 50
125 90 c68 50 131 94 139 97 22 8 17 27 -21 74 -19 24 -35 49 -35 54 0 6 17
22 38 37 46 32 45 33 141 -101z m-3197 82 c22 -20 23 -31 1 -55 -17 -18 -59
-26 -48 -8 3 5 0 7 -9 4 -10 -4 -17 2 -22 20 -12 49 39 75 78 39z m-1444 -63
l43 -19 -23 -34 c-12 -19 -36 -40 -54 -46 -84 -30 -78 -158 9 -211 69 -42 138
-12 187 83 l34 64 43 -30 c47 -34 47 -38 12 -109 -48 -94 -124 -148 -210 -148
-108 0 -186 48 -233 142 -49 99 -32 196 50 276 60 58 77 62 142 32z m3363 -92
c23 -26 23 -28 3 -56 -18 -26 -41 -28 -66 -5 -22 20 -23 41 -1 65 21 24 41 23
64 -4z m-2216 -39 c0 -13 -5 -23 -12 -22 -7 2 -10 -4 -6 -13 11 -29 -49 -13
-66 18 -14 24 -14 28 3 47 16 18 22 19 50 7 23 -9 31 -19 31 -37z m1294 -94
c441 -85 804 -370 1000 -786 76 -162 121 -335 121 -468 l0 -68 -119 -27 c-141
-33 -192 -30 -290 16 -54 26 -99 64 -280 243 -119 116 -229 221 -246 232 -108
73 -201 103 -326 103 -136 0 -240 -31 -354 -105 -63 -41 -345 -314 -345 -333
0 -18 70 -14 115 7 22 10 56 31 74 45 22 16 43 24 55 21 12 -3 15 -2 8 1 -10
5 -10 9 -1 20 6 8 15 14 20 14 13 0 4 -43 -9 -48 -7 -2 -12 -8 -12 -13 0 -6 4
-8 9 -5 5 3 11 -1 15 -9 6 -18 32 -20 42 -3 5 8 2 9 -9 5 -25 -10 -20 8 6 22
l22 12 -23 -5 c-12 -2 -20 0 -17 4 3 5 23 8 45 7 22 -1 45 4 52 11 11 11 10
12 -4 7 -11 -4 -18 -2 -18 4 0 6 11 13 24 17 25 6 25 6 6 26 -11 12 -17 25
-14 29 3 5 -2 6 -11 3 -14 -6 -14 -9 0 -30 8 -13 13 -24 11 -24 -2 0 -11 -3
-19 -6 -11 -4 -14 2 -12 20 2 15 -1 24 -5 21 -5 -3 -7 -12 -3 -20 3 -8 1 -15
-5 -15 -5 0 -12 6 -15 14 -9 24 168 126 192 111 5 -3 11 0 13 7 2 6 21 12 41
12 20 1 37 4 37 9 0 4 10 7 23 6 21 0 21 -1 2 -9 -13 -6 -4 -7 26 -3 26 3 63
0 85 -7 42 -14 115 -60 151 -96 23 -23 136 -162 168 -208 11 -15 33 -44 48
-64 35 -45 53 -77 39 -68 -6 3 -14 1 -18 -6 -4 -7 -4 -10 1 -6 12 12 40 -8 77
-54 18 -23 28 -39 23 -36 -6 4 -11 -2 -11 -12 0 -14 4 -16 12 -9 8 7 15 6 20
-3 4 -7 14 -23 22 -35 13 -22 13 -22 -17 -13 -34 9 -110 60 -111 73 0 5 4 6 9
2 5 -3 12 -1 15 4 4 5 -2 8 -11 6 -18 -3 -63 31 -63 46 0 5 8 6 18 2 9 -3 14
-3 10 1 -3 4 -13 9 -22 10 -14 2 -136 156 -136 172 0 3 -31 37 -69 75 -69 69
-149 117 -204 121 -18 2 -23 6 -16 14 6 8 3 13 -11 17 -11 3 -20 1 -20 -3 0
-5 -8 -8 -18 -7 -29 2 -201 -87 -285 -147 -43 -31 -83 -54 -88 -51 -5 4 -6 -2
-2 -11 5 -14 3 -16 -11 -11 -9 4 -15 3 -12 -2 7 -11 -70 -62 -134 -90 -95 -41
-209 -36 -317 13 -29 14 -105 59 -168 101 -129 85 -237 140 -295 150 l-38 6
14 58 c18 77 67 200 114 286 205 372 573 641 970 709 52 8 106 18 120 20 48 9
255 -3 339 -19z m1183 -72 c22 -20 23 -41 1 -65 -22 -24 -49 -23 -67 4 -20 29
-20 34 4 58 24 24 38 25 62 3z m-2756 -28 c16 -24 16 -27 -1 -45 -32 -35 -84
-16 -85 31 -1 43 60 53 86 14z m4049 -142 c26 -48 26 -48 6 -64 -11 -9 -64
-36 -118 -59 -54 -24 -140 -63 -191 -87 -51 -23 -96 -43 -100 -43 -7 0 -54
112 -49 115 1 1 79 35 172 75 94 40 186 81 205 91 19 10 38 18 42 19 3 0 18
-21 33 -47z m-1080 -133 c-3 -5 0 -7 8 -5 7 3 19 -5 27 -20 12 -23 12 -28 -8
-48 -21 -20 -24 -21 -50 -7 -35 20 -40 53 -10 74 25 18 42 21 33 6z m-3217
-37 c18 -25 15 -39 -13 -57 -17 -11 -25 -13 -25 -5 0 7 -3 9 -7 6 -9 -10 -43
23 -43 43 0 41 59 50 88 13z m-620 -15 c-3 -7 -13 -36 -22 -64 -15 -47 -20
-52 -54 -58 -20 -3 -51 -6 -68 -6 -30 0 -31 -2 -59 -90 -15 -50 -26 -92 -24
-93 2 -2 21 -14 42 -27 42 -27 43 -40 12 -113 l-16 -39 -32 24 c-18 14 -112
84 -209 158 -98 73 -178 138 -178 144 0 23 38 110 50 114 6 2 132 17 278 32
147 15 271 28 276 29 4 0 6 -5 4 -11z m5067 -180 c16 -47 17 -52 2 -63 -9 -6
-86 -34 -172 -61 l-157 -49 6 -35 c3 -19 8 -51 12 -71 6 -35 5 -37 -27 -47
-71 -23 -69 -25 -95 77 -13 51 -29 102 -35 112 -7 15 -6 21 5 25 8 3 18 14 21
24 4 12 20 21 44 25 21 3 112 30 202 60 90 29 166 53 170 54 3 1 13 -22 24
-51z m-1088 -54 c12 -18 11 -24 -8 -47 -23 -31 -41 -34 -63 -11 -21 20 -20 48
0 69 21 21 53 16 71 -11z m-3466 -4 c12 -7 19 -21 19 -40 0 -54 -62 -61 -90
-10 -13 24 -13 26 6 44 18 19 38 20 65 6z m-104 -218 c19 -12 32 -56 22 -75
-12 -20 -62 -23 -77 -4 -6 7 -9 25 -8 41 5 38 34 56 63 38z m3655 -14 c13 -22
9 -44 -13 -64 -19 -17 -23 -17 -47 -3 -33 18 -39 44 -16 70 19 21 61 19 76 -3z
m-4546 -169 c18 -18 39 -48 45 -67 l11 -34 22 20 c11 11 58 43 104 71 l83 52
-3 -68 -3 -68 -100 -68 c-55 -37 -101 -71 -103 -76 -3 -8 77 -21 137 -21 l34
0 -7 -57 c-4 -31 -8 -58 -10 -60 -2 -2 -63 1 -137 7 -74 5 -170 10 -214 10
-134 0 -129 -5 -121 117 8 116 23 177 54 221 51 70 147 80 208 21z m5500 26
c63 -19 113 -61 143 -120 19 -38 22 -58 19 -111 -5 -85 -41 -138 -121 -178
-154 -77 -331 14 -345 178 -10 117 58 207 175 235 56 13 74 13 129 -4z m-3096
-24 c0 -5 -6 -12 -12 -15 -9 -4 -8 -5 2 -5 29 2 38 -1 44 -17 5 -14 4 -15 -8
-5 -9 8 -21 8 -38 2 -20 -8 -24 -6 -23 8 0 9 4 22 9 29 8 14 26 16 26 3z
m-1691 -140 c15 -37 70 -285 65 -290 -8 -9 -75 76 -101 129 -20 42 -28 75 -31
139 l-5 84 31 -19 c17 -10 36 -29 41 -43z m4016 11 c8 -47 -8 -119 -40 -182
-25 -49 -81 -120 -94 -120 -5 0 7 66 25 148 29 128 37 150 61 169 15 13 31 23
35 23 3 0 9 -17 13 -38z m-3829 -81 c138 -96 233 -228 250 -344 l7 -49 -34 17
c-18 10 -72 57 -120 105 -74 73 -94 101 -132 181 -51 107 -62 139 -49 139 5 0
40 -22 78 -49z m3634 -11 c-48 -122 -83 -175 -170 -261 -47 -48 -102 -94 -120
-104 l-33 -17 6 44 c17 122 102 242 240 339 91 64 103 64 77 -1z m-1763 30
c21 -6 23 -9 8 -9 -16 -1 -17 -3 -6 -10 8 -5 20 -7 27 -4 7 2 38 -14 69 -37
33 -24 60 -38 68 -34 7 5 6 0 -3 -10 -8 -11 -16 -14 -18 -7 -2 6 -8 8 -13 5
-6 -3 -5 -12 3 -21 11 -14 10 -15 -12 -8 -14 4 -22 4 -17 0 11 -13 51 -13 60
-1 5 8 9 8 15 0 4 -6 18 -17 32 -24 24 -12 24 -11 -4 19 -46 48 -20 37 30 -14
44 -45 54 -65 33 -65 -6 0 -13 9 -16 20 -3 11 -9 20 -14 20 -5 0 -6 -8 -2 -17
5 -15 3 -16 -7 -6 -16 15 -42 -1 -34 -22 9 -22 -22 -11 -52 18 -15 15 -31 27
-36 27 -5 0 -7 4 -4 9 3 5 -14 24 -39 42 -45 35 -59 57 -28 45 13 -5 11 0 -7
19 -21 22 -25 23 -33 9 -5 -8 -6 -18 -3 -21 3 -4 6 -1 6 5 0 7 5 12 11 12 6 0
8 -8 5 -17 -6 -21 3 -38 24 -45 8 -3 -3 -5 -25 -5 -22 0 -34 2 -27 4 6 3 12
12 12 20 0 14 -2 14 -23 0 -15 -10 -29 -12 -39 -6 -11 6 -18 4 -22 -6 -3 -9
-19 -15 -41 -15 -50 0 -126 -34 -213 -94 -41 -28 -79 -56 -85 -62 -47 -43
-125 -87 -161 -91 -23 -3 -53 -9 -68 -15 -31 -12 -92 13 -109 43 -5 11 -15 19
-22 19 -7 0 -24 16 -39 34 -30 38 -37 56 -14 37 18 -15 198 -16 227 -1 11 6
27 9 35 6 9 -3 12 -1 9 4 -3 6 -2 10 2 10 5 0 37 18 70 40 39 25 68 38 80 34
13 -4 14 -3 5 4 -18 12 142 122 218 149 58 21 140 27 187 13z m-1251 -153
c168 -83 298 -207 453 -437 91 -134 123 -193 146 -275 32 -109 5 -241 -75
-365 -38 -59 -50 -53 -50 25 0 73 -27 236 -56 345 -30 115 -116 294 -183 381
-59 78 -135 153 -150 148 -5 -2 12 -42 40 -89 53 -92 123 -249 163 -370 26
-80 58 -222 51 -229 -7 -6 -189 164 -239 223 -116 136 -203 301 -233 440 -14
69 -14 211 2 235 11 19 39 12 131 -32z m-1051 -72 c41 -33 43 -37 53 -116 20
-161 133 -331 341 -513 170 -149 258 -235 291 -285 32 -47 36 -61 20 -61 -23
0 -271 114 -344 158 -90 54 -232 187 -299 279 -60 83 -103 190 -123 304 -21
122 -14 269 13 269 3 0 25 -16 48 -35z m4505 -90 c0 -125 -14 -211 -47 -295
-71 -179 -257 -366 -473 -475 -65 -33 -259 -115 -271 -115 -37 0 66 126 193
237 355 309 449 436 473 639 7 60 8 62 58 97 37 26 54 33 59 24 4 -7 8 -57 8
-112z m-1974 89 c-3 -7 3 -21 12 -31 9 -10 14 -14 10 -9 -16 20 -7 29 11 12
17 -15 19 -15 32 1 11 15 11 16 -1 6 -11 -10 -17 -9 -32 4 -21 19 -25 41 -4
24 8 -6 18 -10 23 -9 4 2 41 -32 81 -74 41 -42 87 -83 103 -90 35 -15 37 -24
7 -32 -68 -18 -121 5 -192 82 -56 61 -73 88 -70 115 3 30 3 29 15 22 6 -4 8
-13 5 -21z m960 -70 c18 -125 -34 -267 -162 -435 -53 -69 -287 -294 -292 -280
-7 20 29 184 62 284 42 127 88 212 166 305 53 62 187 172 211 172 4 0 11 -21
15 -46z m-3241 -142 c213 -162 388 -344 524 -545 74 -110 176 -327 153 -327
-22 0 -87 70 -114 124 -66 132 -148 228 -330 387 -138 121 -218 205 -277 292
-37 55 -70 125 -71 149 0 14 5 12 28 -9 15 -14 54 -46 87 -71z m4040 51 c-45
-109 -131 -217 -280 -349 -252 -225 -320 -301 -390 -436 -39 -73 -115 -153
-123 -129 -6 17 62 166 114 252 102 168 321 415 474 534 56 44 125 99 154 122
28 23 54 42 59 42 4 1 0 -16 -8 -36z m-3604 -126 c125 -79 203 -172 245 -289
20 -57 36 -201 28 -258 l-7 -50 -22 65 c-36 102 -68 151 -241 361 -89 110
-178 229 -213 287 l-24 39 89 -60 c49 -33 114 -75 145 -95z m3283 141 c-31
-54 -187 -263 -275 -368 -117 -141 -132 -164 -189 -277 l-39 -78 0 77 c-1 99
21 207 59 284 39 79 124 160 256 242 54 34 119 78 144 97 50 38 54 41 44 23z
m-1724 -54 c45 -9 100 -70 129 -140 37 -90 83 -157 139 -200 53 -41 63 -63 37
-84 -39 -32 -151 73 -209 196 -20 41 -36 78 -36 82 0 22 -49 63 -80 68 -51 8
-84 -23 -129 -120 -48 -103 -88 -156 -145 -195 -53 -37 -71 -39 -87 -9 -10 19
-8 25 27 52 72 56 102 95 156 202 47 95 58 109 98 130 49 26 53 27 100 18z
m766 -226 c-52 -139 -85 -279 -97 -408 -19 -206 -20 -220 -27 -220 -11 0 -81
124 -102 178 -55 144 -21 303 92 436 45 52 160 134 166 117 2 -5 -12 -52 -32
-103z m-3307 80 c-7 -13 -11 -25 -9 -28 10 -12 -127 -21 -250 -16 -160 7 -194
14 -198 44 l-3 22 236 0 236 0 -12 -22z m5509 0 c6 -33 -43 -41 -240 -42 -200
-1 -221 4 -190 42 17 22 21 22 222 20 186 -3 205 -5 208 -20z m-5802 -283 c21
-21 23 -28 14 -45 -19 -35 -55 -46 -85 -26 -31 20 -32 42 -3 73 27 29 43 29
74 -2z m5734 0 c22 -23 22 -25 6 -50 -29 -44 -106 -23 -106 28 0 47 63 61 100
22z m-3019 -333 c-11 -170 -18 -193 -105 -336 -45 -74 -57 -116 -35 -116 7 0
34 16 60 35 27 19 51 35 53 35 9 0 12 -98 3 -130 -5 -19 -38 -76 -73 -126 -60
-86 -81 -144 -53 -144 6 0 34 18 61 40 28 22 54 37 59 34 5 -3 9 -40 9 -82 0
-76 -1 -80 -50 -157 -53 -84 -64 -110 -58 -144 3 -19 7 -18 48 19 25 21 49 39
54 40 9 0 1 -235 -10 -283 -4 -15 -12 -26 -18 -24 -19 6 -95 138 -126 219 -72
186 -102 359 -102 588 -1 334 70 556 241 760 l46 54 3 -64 c2 -36 -1 -134 -7
-218z m205 241 c33 -37 106 -149 137 -210 31 -60 73 -193 95 -298 26 -126 23
-457 -6 -591 -38 -177 -120 -385 -182 -464 -16 -21 -21 -22 -29 -11 -26 40
-44 301 -21 301 5 0 29 -18 52 -40 50 -47 58 -49 58 -15 0 33 -15 66 -72 156
-44 70 -48 81 -48 140 0 93 8 100 68 56 106 -79 110 -23 8 113 -71 94 -76 105
-76 170 0 70 6 73 69 30 48 -33 68 -28 58 12 -4 13 -29 61 -57 108 -28 47 -57
106 -65 132 -15 50 -34 438 -21 438 4 0 18 -12 32 -27z m-2685 -74 c41 -20 62
-42 32 -33 -17 5 -17 5 0 -6 9 -6 22 -8 27 -5 6 3 10 1 10 -4 0 -6 -6 -11 -12
-12 -10 0 -10 -2 0 -6 10 -4 10 -8 0 -21 -8 -9 -8 -13 -2 -9 7 4 14 0 17 -8 7
-16 -3 -13 -72 22 -75 38 -111 29 -111 -28 0 -20 60 -68 117 -96 18 -8 30 -19
27 -24 -3 -5 4 -9 15 -9 14 0 19 -5 15 -15 -8 -21 -54 -19 -109 5 -90 39 -145
102 -145 168 0 44 14 69 53 93 37 23 78 19 138 -12z m5353 -10 c43 -51 32
-132 -26 -186 -31 -28 -114 -69 -158 -77 -42 -7 -75 8 -41 19 12 3 19 10 17
14 -9 14 9 28 76 58 74 35 96 62 79 99 -14 31 -48 31 -110 0 -38 -20 -51 -22
-61 -13 -10 9 -11 9 -6 0 3 -6 2 -14 -4 -18 -10 -6 -11 -5 -15 33 -4 43 98
100 182 101 34 1 46 -4 67 -30z m-3728 -228 c245 -161 385 -346 423 -555 12
-66 13 -237 2 -276 -6 -22 -10 -16 -31 45 -35 107 -114 285 -161 367 -74 128
-195 278 -225 278 -26 0 -15 -34 47 -145 34 -61 84 -156 110 -211 56 -117 176
-403 186 -441 6 -25 3 -24 -53 19 -32 25 -92 80 -132 122 -196 206 -251 333
-287 656 -9 80 -19 162 -22 183 -4 29 -2 37 9 37 9 0 69 -35 134 -79z m2020
27 c-3 -29 -13 -123 -21 -208 -28 -281 -78 -398 -251 -589 -53 -59 -192 -181
-206 -181 -15 0 -8 20 82 229 87 204 135 303 225 466 70 126 56 153 -32 63
-92 -95 -226 -322 -282 -478 -64 -177 -69 -187 -76 -157 -4 16 -5 88 -3 160 4
110 10 146 33 216 60 177 188 319 426 470 52 33 98 60 102 61 5 0 6 -24 3 -52z
m-3921 -7 c61 -62 69 -76 51 -91 -18 -14 -47 -1 -93 43 -33 30 -39 50 -27 81
9 24 17 20 69 -33z m690 14 c317 -64 548 -196 773 -442 80 -87 139 -163 127
-163 -3 0 -70 42 -148 94 -171 112 -238 150 -427 240 -142 67 -239 106 -267
106 -19 0 -16 -24 8 -54 34 -43 131 -103 339 -211 107 -56 222 -119 255 -140
l60 -40 -50 -7 c-119 -16 -312 20 -440 82 -203 98 -321 237 -359 422 -18 89
-20 138 -6 138 6 0 67 -11 135 -25z m5125 10 c17 -21 5 -49 -40 -89 -44 -39
-61 -44 -80 -21 -10 13 -10 19 5 35 10 11 21 17 26 15 4 -3 11 0 15 6 4 8 3 9
-4 5 -17 -10 -15 9 3 24 8 6 20 8 26 4 8 -4 9 -3 5 4 -17 28 22 43 44 17z
m-660 -42 c0 -66 -25 -163 -58 -231 -108 -220 -443 -386 -717 -353 l-50 6 80
51 c44 28 142 85 218 125 191 102 187 100 238 136 55 38 109 98 109 119 0 12
-7 14 -32 9 -138 -30 -537 -254 -763 -429 -46 -36 -44 -23 9 57 135 203 360
382 595 472 88 34 283 82 344 84 26 1 27 -1 27 -46z m-3627 -141 c107 -79 166
-158 167 -222 0 -21 -11 -14 -87 61 -49 47 -104 99 -123 115 -19 16 -36 34
-38 39 -2 6 -10 13 -17 18 -21 11 -7 35 19 33 12 -2 48 -22 79 -44z m2745 31
c2 -7 -9 -25 -25 -40 -128 -122 -238 -223 -244 -223 -4 0 -1 19 7 43 39 116
240 284 262 220z m-4058 -135 c24 -13 46 -30 49 -38 4 -13 2 -13 -12 -1 -15
12 -17 11 -17 -7 0 -12 6 -20 13 -18 6 1 9 1 4 -1 -4 -3 -5 -8 -2 -13 3 -4
-18 0 -45 11 -70 27 -106 25 -126 -6 -16 -25 -16 -27 6 -50 13 -13 39 -30 59
-36 20 -6 52 -28 71 -48 l35 -36 -37 -3 c-111 -9 -218 69 -218 159 0 40 29 85
64 99 40 16 110 11 156 -12z m5460 -23 c61 -32 85 -92 58 -150 -23 -52 -206
-111 -221 -71 -9 22 23 49 76 63 59 16 91 43 83 70 -11 33 -44 42 -101 26
-103 -29 -106 -29 -103 5 2 27 9 34 48 51 54 24 120 27 160 6z m-4894 -362
c57 -9 104 -20 104 -23 0 -15 -164 -75 -295 -109 -191 -48 -337 -49 -530 -1
-136 34 -190 58 -190 85 0 19 9 20 150 27 83 5 233 14 335 22 256 18 307 18
426 -1z m4559 2 c99 -8 249 -18 333 -22 114 -5 158 -10 168 -21 22 -22 3 -38
-84 -66 -142 -47 -210 -58 -347 -59 -178 0 -359 41 -540 123 l-50 23 45 9
c155 30 236 33 475 13z m-3802 -169 c-3 -13 -132 -51 -605 -176 -210 -56 -285
-98 -245 -137 14 -15 26 -14 129 6 264 53 627 149 803 212 47 17 89 29 95 27
11 -3 -136 -103 -221 -151 -68 -38 -302 -144 -394 -179 -112 -41 -201 -58
-313 -58 -81 0 -120 6 -255 42 -90 24 -162 49 -165 56 -13 35 160 171 309 241
162 77 247 95 544 116 213 14 321 15 318 1z m2872 -6 c306 -22 395 -31 465
-51 151 -41 299 -127 399 -230 34 -34 61 -66 61 -70 0 -9 -78 -33 -234 -74
-108 -28 -238 -33 -339 -14 -140 25 -482 178 -655 293 -54 35 -104 72 -111 80
-15 18 2 13 143 -43 121 -49 327 -104 601 -161 262 -55 295 -56 295 -11 0 27
-84 65 -213 97 -135 34 -529 141 -562 154 -27 10 -55 33 -55 45 0 4 12 4 28 1
15 -3 95 -10 177 -16z m-2511 -200 c87 -45 234 -149 301 -212 66 -61 105 -118
83 -118 -41 0 -190 106 -313 223 -71 68 -95 86 -95 73 0 -2 7 -23 15 -46 35
-98 176 -256 345 -385 110 -84 165 -139 156 -154 -4 -6 -24 -11 -44 -11 -43 0
-177 69 -260 132 -78 61 -174 168 -210 237 -36 66 -72 194 -72 253 0 48 16 49
94 8z m1989 18 c7 -21 -13 -149 -33 -206 -29 -81 -65 -137 -143 -218 -108
-115 -290 -224 -371 -224 -78 0 -56 31 114 160 167 127 253 216 324 335 32 52
47 105 30 105 -3 0 -49 -40 -102 -90 -110 -104 -220 -183 -274 -198 -55 -15
-49 0 35 82 77 75 221 180 321 233 66 35 91 40 99 21z m-2338 -278 c-5 -34 -9
-39 -83 -97 -66 -53 -179 -115 -267 -148 -114 -43 -199 -57 -350 -58 -152 -1
-195 8 -195 43 0 24 -16 22 165 25 239 3 352 39 609 193 66 40 121 72 122 72
1 0 1 -14 -1 -30z m2735 -45 c117 -72 255 -138 335 -160 39 -11 120 -19 233
-24 132 -4 175 -9 181 -20 25 -40 -18 -54 -169 -54 -178 1 -303 30 -455 106
-127 63 -261 159 -250 177 3 5 -2 11 -11 14 -22 8 -8 25 19 22 12 -2 65 -29
117 -61z m-2531 -46 c12 -22 16 -37 10 -34 -8 5 -8 2 -1 -11 15 -28 12 -94 -5
-120 -8 -14 -44 -34 -86 -50 -143 -54 -206 -96 -194 -129 10 -23 51 -19 208
25 79 21 164 42 188 46 39 6 43 5 40 -12 -8 -38 -222 -128 -368 -154 -112 -20
-398 -13 -478 12 -48 14 -40 34 20 53 185 61 537 285 607 388 14 20 27 34 31
31 4 -2 16 -22 28 -45z m2446 -148 c166 -112 264 -165 379 -206 105 -38 118
-56 54 -74 -67 -19 -351 -26 -449 -11 -153 22 -380 112 -387 154 -4 16 0 18
35 11 21 -3 100 -24 177 -46 150 -42 203 -48 213 -24 12 33 -51 75 -212 141
l-80 32 1 89 c0 49 6 98 13 111 12 22 13 22 69 -33 31 -31 116 -96 187 -144z
m-1458 63 c2 -6 -50 -65 -114 -132 -83 -86 -125 -122 -140 -122 -13 0 -23 4
-23 8 0 27 153 218 195 244 31 19 76 21 82 2z m290 -3 c35 -22 95 -94 155
-186 32 -49 36 -61 23 -63 -18 -4 -89 42 -109 70 -7 9 -45 52 -84 93 -40 42
-72 82 -72 90 0 22 49 19 87 -4z m-125 -184 c18 -13 81 -72 140 -130 84 -85
119 -113 174 -139 69 -33 70 -33 222 -33 168 1 186 -7 110 -47 -53 -27 -178
-36 -261 -18 -109 22 -183 69 -309 195 -90 90 -121 115 -142 115 -22 0 -50
-23 -137 -114 -149 -154 -251 -206 -404 -206 -96 0 -131 9 -144 36 -10 23 -9
24 27 25 193 7 260 24 355 92 35 25 100 85 143 133 106 117 157 137 226 91z
m-572 -127 c0 -17 -41 -38 -200 -101 -152 -61 -231 -79 -259 -60 -33 22 39 66
194 119 50 17 108 36 130 41 54 12 135 13 135 1z m1192 -11 c95 -24 243 -82
277 -108 16 -12 22 -24 18 -35 -11 -27 -80 -20 -170 18 -45 19 -118 49 -162
66 -88 34 -125 55 -125 70 0 16 77 11 162 -11z"/>
<path d="M4933 7926 c-24 -21 -28 -32 -28 -76 0 -44 4 -55 28 -76 58 -50 125
-16 134 70 5 40 2 48 -25 76 -37 37 -71 39 -109 6z"/>
<path d="M4956 7286 c5 -13 4 -17 -4 -12 -8 4 -10 2 -6 -7 3 -8 1 -18 -5 -22
-11 -6 9 -35 25 -35 5 0 3 5 -4 12 -18 18 -14 32 5 17 14 -12 15 -12 9 0 -5 7
-4 16 1 20 6 3 2 14 -9 26 -18 19 -19 19 -12 1z"/>
<path d="M4636 7178 c3 -5 10 -6 15 -3 13 9 11 12 -6 12 -8 0 -12 -4 -9 -9z"/>
<path d="M6236 6882 c-3 -5 1 -9 9 -9 8 0 12 4 9 9 -3 4 -7 8 -9 8 -2 0 -6 -4
-9 -8z"/>
<path d="M3990 6879 c0 -5 5 -7 10 -4 6 3 10 8 10 11 0 2 -4 4 -10 4 -5 0 -10
-5 -10 -11z"/>
<path d="M5074 6476 c-17 -13 -19 -26 -17 -166 1 -84 4 -162 7 -175 7 -28 36
-37 68 -21 22 11 23 15 26 174 2 151 1 163 -18 182 -24 24 -39 25 -66 6z"/>
<path d="M5541 6339 c-27 -29 -91 -153 -91 -176 0 -27 19 -43 50 -43 34 0 51
19 89 100 36 76 39 115 12 130 -28 14 -38 13 -60 -11z"/>
<path d="M4610 6305 c-18 -22 -6 -68 35 -135 46 -75 56 -83 89 -70 50 19 47
57 -10 141 -54 80 -86 98 -114 64z"/>
<path d="M5807 5974 c-43 -26 -85 -57 -94 -70 -14 -22 -14 -26 1 -49 23 -35
53 -32 127 16 109 70 138 106 107 137 -22 22 -63 12 -141 -34z"/>
<path d="M4326 5984 c-9 -8 -16 -24 -16 -34 0 -19 72 -85 145 -133 64 -43 115
-33 115 23 0 21 -14 36 -72 77 -76 52 -130 83 -147 83 -5 0 -17 -7 -25 -16z"/>
<path d="M4998 5773 c-20 -5 -24 -23 -5 -23 17 0 41 17 31 22 -5 2 -17 3 -26
1z"/>
<path d="M5310 5770 c-8 -5 -12 -11 -10 -14 3 -2 14 2 24 10 22 15 10 19 -14
4z"/>
<path d="M5334 5755 c-18 -15 -18 -15 0 -8 14 5 17 3 11 -7 -5 -8 -4 -11 2 -7
6 4 14 0 17 -9 4 -9 13 -14 21 -10 26 9 46 -4 40 -28 -2 -11 -2 -15 1 -8 3 6
10 10 15 6 5 -3 9 -1 9 5 0 16 -47 44 -60 36 -12 -8 -41 25 -34 37 8 12 0 9
-22 -7z"/>
<path d="M5504 5609 c-3 -6 -2 -15 3 -20 5 -5 9 -1 9 11 0 23 -2 24 -12 9z"/>
<path d="M3746 6708 c3 -5 10 -6 15 -3 13 9 11 12 -6 12 -8 0 -12 -4 -9 -9z"/>
<path d="M3724 6683 c10 -11 37 -12 30 -2 -3 5 -12 9 -21 9 -9 0 -13 -3 -9 -7z"/>
<path d="M3476 6393 c-6 -14 -5 -15 5 -6 7 7 10 15 7 18 -3 3 -9 -2 -12 -12z"/>
<path d="M3497 6383 c-4 -3 -7 -11 -7 -17 0 -6 5 -5 12 2 6 6 9 14 7 17 -3 3
-9 2 -12 -2z"/>
<path d="M2535 6235 l-80 -10 66 -46 67 -47 20 54 c11 30 17 55 13 57 -3 2
-42 -2 -86 -8z"/>
<path d="M2322 5641 c-14 -8 -31 -69 -32 -108 0 -19 6 -22 55 -25 l55 -3 0 50
c0 75 -35 114 -78 86z"/>
<path d="M7793 5635 c-67 -47 -39 -165 43 -181 45 -8 76 1 113 32 46 38 40
103 -13 146 -27 22 -113 24 -143 3z"/>
<path d="M5098 5543 c7 -3 16 -2 19 1 4 3 -2 6 -13 5 -11 0 -14 -3 -6 -6z"/>
<path d="M5138 5543 c6 -2 18 -2 25 0 6 3 1 5 -13 5 -14 0 -19 -2 -12 -5z"/>
<path d="M5105 5510 c-3 -6 1 -7 9 -4 18 7 21 14 7 14 -6 0 -13 -4 -16 -10z"/>
<path d="M5136 5504 c-5 -14 -4 -15 9 -4 17 14 19 20 6 20 -5 0 -12 -7 -15
-16z"/>
<path d="M5247 5509 c7 -7 15 -10 18 -7 3 3 -2 9 -12 12 -14 6 -15 5 -6 -5z"/>
<path d="M5181 5484 c0 -11 3 -14 6 -6 3 7 2 16 -1 19 -3 4 -6 -2 -5 -13z"/>
<path d="M4920 5470 c0 -6 7 -13 15 -16 8 -4 13 -10 10 -14 -3 -5 -1 -11 4
-14 20 -12 21 13 1 27 -11 7 -17 17 -13 20 3 4 1 7 -5 7 -7 0 -12 -5 -12 -10z"/>
<path d="M5121 5471 c-9 -6 -10 -11 -2 -15 6 -4 11 -5 11 -1 0 3 8 1 19 -4 25
-14 35 -1 13 15 -20 16 -23 16 -41 5z"/>
<path d="M5310 5460 c0 -5 5 -10 11 -10 5 0 7 5 4 10 -3 6 -8 10 -11 10 -2 0
-4 -4 -4 -10z"/>
<path d="M4850 5396 c0 -2 7 -7 16 -10 8 -3 12 -2 9 4 -6 10 -25 14 -25 6z"/>
<path d="M5370 5390 c0 -5 5 -10 11 -10 5 0 8 -4 5 -9 -4 -5 3 -7 14 -4 19 5
20 6 3 19 -22 16 -33 18 -33 4z"/>
<path d="M5340 5380 c-13 -8 -12 -10 3 -10 9 0 17 5 17 10 0 12 -1 12 -20 0z"/>
<path d="M4450 5239 c13 -24 21 -25 14 -1 -5 15 -4 15 6 -1 6 -10 9 -25 6 -32
-3 -8 3 -19 14 -25 20 -11 67 -14 57 -4 -7 7 22 39 43 46 13 5 -40 18 -122 32
-25 4 -27 3 -18 -15z m77 -55 c-3 -3 -12 -4 -19 -1 -8 3 -5 6 6 6 11 1 17 -2
13 -5z"/>
<path d="M5474 5259 c-3 -6 -2 -15 3 -20 5 -5 9 -1 9 11 0 23 -2 24 -12 9z"/>
</g>
</svg>
