<?xml version="1.0" standalone="no"?>
<!DOCTYPE svg PUBLIC "-//W3C//DTD SVG 20010904//EN"
 "http://www.w3.org/TR/2001/REC-SVG-20010904/DTD/svg10.dtd">
<svg version="1.0" xmlns="http://www.w3.org/2000/svg"
 width="1024.000000pt" height="524.000000pt" viewBox="0 0 1024.000000 524.000000"
 preserveAspectRatio="xMidYMid meet">

<g transform="translate(0.000000,524.000000) scale(0.100000,-0.100000)"
fill="#000000" stroke="none">
<path d="M2388 3868 c4 -28 6 -30 13 -13 12 30 10 45 -4 45 -10 0 -12 -10 -9
-32z"/>
<path d="M1126 3871 c4 -9 8 -29 9 -46 0 -16 5 -38 11 -49 10 -16 12 -15 17
13 4 19 13 31 22 31 12 0 15 6 10 23 -6 18 -5 20 6 9 7 -7 15 -31 16 -55 2
-23 8 -44 13 -45 6 -2 8 -8 5 -12 -7 -11 -45 25 -45 42 0 9 -3 9 -11 1 -6 -6
-8 -25 -4 -47 7 -36 22 -43 73 -37 7 1 22 -20 34 -46 11 -26 29 -59 40 -72 10
-14 16 -32 13 -43 -5 -12 -1 -18 10 -18 8 0 20 -11 25 -24 5 -13 18 -27 29
-31 12 -3 21 -11 21 -16 0 -14 -16 -11 -30 6 -18 22 -32 7 -25 -27 5 -21 2
-35 -11 -49 -11 -12 -20 -16 -24 -9 -11 17 -40 1 -32 -18 5 -14 3 -15 -10 -5
-8 7 -17 10 -21 7 -8 -8 -19 34 -12 46 5 8 11 7 21 -1 12 -10 13 -9 8 5 -7 18
-54 22 -54 4 0 -6 -9 -3 -20 7 -11 10 -20 23 -20 28 0 6 -7 19 -17 29 -9 11
-11 18 -5 18 7 0 12 7 12 16 0 10 -5 14 -15 10 -24 -9 -30 22 -9 45 16 18 16
19 1 13 -21 -8 -22 3 -1 23 12 12 12 18 3 23 -7 5 -9 18 -5 36 7 28 7 28 -13
10 -20 -18 -21 -18 -31 8 -5 15 -10 34 -10 42 0 13 -2 13 -16 0 -18 -19 -11
-74 11 -83 10 -3 13 -19 11 -51 -2 -26 0 -52 5 -58 14 -18 14 -71 0 -88 -12
-14 -11 -19 3 -34 19 -22 22 -47 4 -36 -9 5 -9 3 1 -9 7 -9 11 -28 9 -42 -3
-14 -2 -28 3 -30 11 -8 9 -66 -3 -92 -9 -18 -8 -27 5 -41 20 -22 22 -42 5 -42
-9 0 -10 -3 -2 -8 13 -8 13 -81 0 -101 -6 -9 -5 -12 2 -7 7 4 9 -19 5 -76 -2
-46 -5 -116 -5 -157 0 -44 -4 -68 -9 -60 -7 11 -9 10 -9 -3 0 -9 4 -20 10 -23
5 -3 9 -39 9 -80 -1 -41 2 -79 5 -84 4 -6 -1 -22 -10 -36 -9 -14 -14 -28 -10
-32 3 -3 6 -1 6 5 0 7 4 12 9 12 14 0 7 -120 -8 -129 -10 -6 -9 -10 4 -15 11
-4 15 -12 11 -22 -5 -13 -1 -15 24 -12 32 5 35 2 21 -21 -6 -9 -6 -22 1 -35 8
-14 8 -21 0 -24 -16 -5 -3 -32 15 -32 10 0 13 6 8 18 -5 14 -4 15 6 4 29 -28
30 -9 1 21 -32 33 -32 41 2 67 18 14 18 13 12 -7 -4 -13 -3 -30 2 -38 7 -14
10 -15 21 -1 9 11 10 20 1 35 -13 25 -3 27 30 4 22 -16 23 -16 17 0 -5 13 0
17 21 18 15 1 40 3 55 5 24 2 27 0 22 -17 -4 -11 -1 -27 7 -36 10 -13 10 -17
1 -20 -18 -6 -16 -33 1 -33 8 0 16 6 19 13 3 9 7 9 20 -1 19 -16 53 1 61 33 4
15 0 13 -19 -10 l-25 -30 -32 32 -33 33 24 22 c16 16 25 19 28 11 3 -7 9 -13
14 -13 6 0 7 5 4 10 -8 13 1 13 26 0 15 -8 19 -7 19 5 0 12 12 15 56 15 51 0
55 -2 49 -20 -4 -12 -1 -28 7 -37 10 -13 10 -17 1 -20 -18 -6 -16 -30 2 -30 8
0 12 4 9 8 -2 4 4 9 13 11 16 3 16 6 -4 23 -28 24 -29 41 -4 55 29 15 35 12
20 -7 -13 -16 -12 -17 3 -5 22 17 35 -2 17 -26 -12 -16 -12 -16 6 0 15 14 16
20 5 33 -20 24 -4 30 24 7 14 -10 22 -22 19 -26 -3 -3 -1 -6 5 -6 7 0 12 7 12
15 0 8 -4 15 -10 15 -5 0 -10 5 -10 10 0 6 29 10 66 10 56 0 65 -2 60 -16 -4
-10 -2 -13 6 -8 6 4 18 -2 26 -12 13 -18 14 -17 8 9 -7 28 -7 28 19 11 22 -15
25 -15 19 -1 -5 14 2 15 47 12 30 -2 55 -9 57 -14 3 -8 10 -8 23 -1 13 7 19 7
19 0 0 -5 7 -10 16 -10 8 0 13 4 10 8 -3 5 14 8 37 7 121 -5 115 -4 110 -24
-3 -10 0 -28 6 -40 10 -17 9 -21 -4 -21 -8 0 -15 -4 -15 -9 0 -16 20 -23 34
-12 7 6 17 7 21 3 5 -4 1 4 -8 18 -29 42 -30 50 -11 65 27 21 36 18 24 -6 -9
-15 -8 -24 1 -35 10 -12 13 -12 24 3 10 13 10 22 3 31 -18 21 -5 22 22 2 23
-17 24 -19 8 -37 -19 -21 -14 -63 7 -63 7 0 15 -3 18 -7 2 -5 2 -2 0 5 -1 8
-3 20 -3 28 0 9 -4 12 -10 9 -13 -8 -13 1 0 26 7 13 7 25 0 38 -9 18 -7 20 17
18 15 -1 28 3 28 8 0 6 4 16 8 23 5 6 5 17 1 24 -14 22 -12 72 3 95 14 21 14
23 0 18 -12 -5 -14 3 -11 52 5 75 5 71 0 120 -3 23 -1 45 4 48 6 3 10 14 10
23 0 13 -2 14 -9 4 -5 -8 -8 17 -9 60 0 40 -3 88 -6 106 -3 19 0 42 7 53 9 15
9 23 0 38 -7 10 -12 51 -11 89 0 39 -2 75 -6 80 -3 6 -2 13 3 16 4 3 7 37 5
76 -2 38 0 70 4 70 4 0 7 52 8 115 0 73 5 120 12 127 8 8 9 15 0 25 -8 10 -6
18 8 34 15 16 15 19 2 14 -13 -5 -15 -2 -11 14 3 12 9 21 13 21 5 0 13 13 18
29 9 24 7 32 -9 47 -17 15 -19 15 -19 1 0 -9 -5 -28 -10 -43 l-10 -27 -20 23
c-11 13 -20 19 -20 14 0 -6 5 -15 10 -20 16 -16 1 -44 -18 -36 -15 5 -16 4 -2
-14 8 -10 20 -22 25 -26 6 -5 6 -8 -2 -8 -6 0 -9 -9 -6 -20 3 -11 10 -17 15
-14 6 4 5 -3 -1 -14 -7 -13 -17 -19 -26 -16 -8 4 -15 2 -15 -4 0 -6 5 -12 12
-14 14 -5 -30 -89 -51 -96 -8 -3 -11 0 -7 7 4 6 3 11 -3 11 -6 0 -7 8 -4 18 4
10 -5 5 -20 -12 -15 -16 -27 -34 -27 -39 0 -6 7 -2 15 9 15 20 20 10 15 -26
-3 -23 -7 -24 -39 -1 -27 19 -30 20 -33 4 -3 -14 -7 -13 -30 10 -18 17 -28 22
-32 14 -3 -9 -7 -8 -15 3 -7 10 -6 18 1 27 7 9 7 13 -1 13 -16 0 -14 17 3 23
10 4 13 1 10 -7 -7 -19 16 -32 27 -15 5 8 3 16 -3 21 -9 5 -9 13 0 32 13 29
38 37 27 9 -4 -10 -9 -24 -12 -30 -3 -7 0 -13 6 -13 8 0 9 -6 2 -17 -11 -22 9
-45 29 -33 10 6 9 9 -1 13 -11 5 -10 9 5 21 10 8 15 20 10 27 -5 9 -3 9 7 3
20 -13 67 -12 73 1 2 7 -8 9 -30 7 -20 -3 -34 0 -34 7 0 13 35 32 44 23 4 -3
10 -2 14 3 4 6 16 15 26 21 27 14 33 36 10 33 -11 -2 -24 0 -30 3 -6 4 -17 -3
-24 -17 -7 -14 -21 -25 -29 -25 -9 0 -22 -13 -29 -30 -19 -41 -27 -38 -29 13
-2 58 61 189 91 186 47 -3 54 1 60 36 10 50 -2 61 -29 28 -14 -15 -28 -24 -32
-20 -4 5 -3 11 3 15 13 8 26 57 18 65 -4 3 -22 -10 -42 -29 -64 -62 -179 -114
-297 -134 -38 -7 -141 -14 -227 -16 -140 -3 -167 -1 -251 20 -126 32 -188 66
-261 141 -61 63 -72 66 -89 25 -4 -11 -6 -9 -7 5 -1 11 -2 25 -1 31 1 6 -6 11
-14 11 -11 0 -14 -5 -9 -16z m794 -366 c0 -16 -7 -17 -222 -21 -65 -1 -118 2
-118 6 0 14 22 16 147 15 68 0 123 3 123 6 0 3 16 6 35 7 25 1 35 -3 35 -13z
m-130 -89 c0 -41 -2 -44 -30 -48 -38 -6 -40 -4 -40 49 0 43 0 43 35 43 35 0
35 0 35 -44z m-386 8 c10 -25 7 -34 -9 -34 -9 0 -15 9 -15 25 0 28 15 34 24 9z
m713 -38 c-2 -41 -5 -52 -14 -44 -14 12 -29 -32 -19 -57 3 -9 2 -14 -3 -11 -5
3 -11 -7 -14 -22 -3 -15 -1 -30 4 -33 13 -8 -7 -59 -22 -59 -7 0 -9 3 -6 7 4
3 -2 13 -14 21 -24 17 -41 5 -44 -30 -1 -17 -9 -24 -28 -26 -25 -3 -27 -1 -27
37 0 30 -4 41 -15 41 -8 0 -15 5 -15 10 0 7 6 7 19 0 13 -7 22 -7 26 0 3 5 -1
10 -10 10 -8 0 -18 7 -22 16 -3 8 -12 13 -19 10 -8 -3 -14 -1 -14 4 0 6 4 10
9 10 5 0 11 9 14 20 6 22 -8 28 -16 8 -3 -9 -9 -7 -20 7 -17 22 -15 24 46 39
20 5 27 3 27 -9 0 -8 5 -15 10 -15 6 0 10 10 10 21 0 16 5 20 20 16 13 -3 21
1 25 14 10 31 25 22 25 -15 0 -19 4 -37 8 -40 5 -3 8 13 8 36 -1 46 26 76 44
48 8 -12 10 -11 10 6 0 18 8 34 16 34 2 0 2 -24 1 -54z m-666 16 c0 -9 3 -12
5 -6 7 18 42 5 50 -18 3 -11 3 -31 0 -45 -5 -16 -3 -22 4 -18 5 3 10 20 10 36
0 20 4 29 13 26 6 -2 11 -10 9 -16 -1 -7 7 -9 23 -5 21 5 25 3 25 -15 0 -12 5
-21 10 -21 6 0 10 4 10 9 0 6 12 8 28 7 15 -2 35 -4 45 -5 13 -1 16 -7 12 -28
l-5 -28 11 28 c13 34 33 36 27 2 -3 -14 -1 -28 3 -31 5 -3 4 -14 -1 -25 -6
-10 -9 -19 -6 -19 2 0 11 -2 19 -6 11 -4 16 7 21 45 4 28 8 51 11 51 2 0 10 3
19 6 12 4 16 0 16 -15 0 -12 4 -21 9 -21 5 0 7 9 4 20 -3 11 -1 20 5 20 6 0
14 -9 17 -20 3 -11 11 -20 16 -20 5 0 7 -17 3 -40 -5 -31 -3 -40 8 -40 19 0
23 -64 4 -79 -12 -10 -17 -8 -25 8 -15 28 -14 41 6 41 9 0 14 3 10 6 -10 10
-47 -7 -47 -22 0 -17 -1 -17 -34 -4 -17 6 -26 6 -26 0 0 -14 -28 -12 -33 3 -2
7 -10 0 -17 -16 -17 -35 -29 -31 -45 16 -11 32 -11 36 1 26 12 -10 13 -9 8 5
-4 11 -1 16 10 16 11 0 15 7 12 23 -2 17 -9 21 -27 19 -13 -2 -31 -10 -40 -18
-9 -8 -19 -11 -24 -7 -4 5 -3 -2 4 -14 6 -12 11 -38 11 -58 0 -30 -3 -36 -16
-31 -9 3 -20 6 -25 6 -5 0 -9 11 -9 24 0 26 -25 53 -34 38 -3 -6 2 -13 11 -16
15 -6 15 -8 3 -16 -19 -12 -33 -13 -25 -1 3 5 1 12 -4 15 -5 3 -12 -1 -15 -9
-5 -13 -9 -13 -25 -3 -13 8 -16 15 -9 19 6 4 12 24 12 46 1 27 7 39 19 41 9 2
17 8 17 13 0 13 -14 11 -28 -3 -9 -9 -14 -4 -23 20 -6 18 -17 32 -25 32 -8 0
-14 5 -14 11 0 5 4 8 8 5 4 -2 8 4 8 15 0 10 -3 19 -7 19 -9 0 -18 37 -12 44
9 9 23 -4 24 -22z m749 -73 c0 -5 4 -8 9 -5 5 3 14 -1 21 -9 10 -12 9 -16 -3
-21 -9 -3 -20 -3 -25 0 -6 3 -15 -1 -21 -8 -8 -10 -9 -16 -1 -21 6 -3 7 -11 4
-17 -5 -7 -10 -3 -15 10 -5 12 -13 22 -19 22 -16 0 -24 -30 -11 -43 6 -6 11
-16 11 -21 -1 -16 -40 34 -40 50 0 7 6 17 14 21 7 4 18 18 25 31 12 22 51 31
51 11z m-796 -24 c6 -11 17 -24 24 -28 16 -10 15 -29 -1 -52 -13 -16 -14 -15
-9 15 4 31 3 33 -22 28 -17 -4 -26 -1 -26 8 0 8 -6 11 -15 8 -23 -9 -45 3 -39
21 4 9 13 14 20 11 8 -3 14 -1 14 5 0 18 42 5 54 -16z m356 0 c0 -8 -4 -15
-10 -15 -5 0 -10 7 -10 15 0 8 5 15 10 15 6 0 10 -7 10 -15z m-115 -94 c-3 -6
-11 -11 -17 -11 -6 0 -6 6 2 15 14 17 26 13 15 -4z m-500 -31 c3 -5 1 -10 -4
-10 -6 0 -11 5 -11 10 0 6 2 10 4 10 3 0 8 -4 11 -10z m885 -16 c0 -8 -4 -14
-9 -14 -11 0 -22 26 -14 34 9 9 23 -3 23 -20z m-245 -34 c-27 -12 -35 -12 -35
0 0 6 12 10 28 9 24 0 25 -1 7 -9z m545 -870 c0 -5 -4 -10 -10 -10 -5 0 -10 5
-10 10 0 6 5 10 10 10 6 0 10 -4 10 -10z m-1070 -10 c0 -5 -4 -10 -10 -10 -5
0 -10 5 -10 10 0 6 5 10 10 10 6 0 10 -4 10 -10z"/>
<path d="M2026 3277 c-7 -29 -3 -31 18 -8 14 16 15 19 2 24 -9 4 -16 -2 -20
-16z"/>
<path d="M1935 3270 c-3 -5 1 -10 10 -10 9 0 13 5 10 10 -3 6 -8 10 -10 10 -2
0 -7 -4 -10 -10z"/>
<path d="M1984 3265 c-9 -22 1 -29 15 -11 8 10 9 16 1 21 -5 3 -13 -1 -16 -10z"/>
<path d="M1647 3300 c6 -7 9 -19 6 -26 -3 -8 1 -14 11 -14 24 0 19 28 -6 41
-18 9 -21 9 -11 -1z"/>
<path d="M1542 3259 c2 -7 10 -15 17 -17 8 -3 12 1 9 9 -2 7 -10 15 -17 17 -8
3 -12 -1 -9 -9z"/>
<path d="M1595 3260 c4 -6 11 -8 16 -5 14 9 11 15 -7 15 -8 0 -12 -5 -9 -10z"/>
<path d="M1505 3250 c-3 -5 -2 -10 4 -10 5 0 13 5 16 10 3 6 2 10 -4 10 -5 0
-13 -4 -16 -10z"/>
<path d="M1690 3179 c0 -5 5 -7 10 -4 6 3 10 8 10 11 0 2 -4 4 -10 4 -5 0 -10
-5 -10 -11z"/>
<path d="M2340 3861 c0 -21 6 -32 20 -36 12 -4 20 -15 20 -28 0 -17 2 -19 9
-8 8 13 12 13 26 1 9 -8 0 11 -22 43 -21 31 -41 56 -45 57 -5 0 -8 -13 -8 -29z"/>
<path d="M997 3827 c-3 -8 1 -21 9 -28 12 -10 18 -9 32 4 9 10 11 17 5 17 -6
0 -13 -6 -16 -12 -3 -8 -9 -3 -14 11 -8 19 -11 21 -16 8z"/>
<path d="M2461 3824 c0 -11 3 -14 6 -6 3 7 2 16 -1 19 -3 4 -6 -2 -5 -13z"/>
<path d="M2725 3830 c-10 -17 -44 -220 -50 -300 -3 -41 -8 -82 -12 -90 -3 -8
-5 -25 -4 -37 1 -12 -3 -31 -8 -42 -6 -11 -8 -22 -4 -24 5 -3 6 -35 5 -71 -2
-41 -8 -64 -14 -60 -5 4 -5 -3 2 -16 7 -13 9 -33 4 -48 -7 -29 -12 -73 -17
-190 -3 -53 -9 -78 -23 -94 -16 -19 -16 -20 -1 -9 15 12 17 11 17 -17 0 -25
-3 -29 -20 -25 -11 3 -20 0 -20 -6 0 -6 9 -11 20 -11 17 0 20 -7 22 -47 3
-124 15 -266 22 -284 4 -8 2 -28 -3 -42 -6 -15 -7 -27 -2 -27 7 0 15 -171 12
-260 0 -14 0 -52 0 -84 0 -64 -8 -76 -54 -76 -23 0 -26 3 -18 18 6 11 6 24 -1
36 -7 13 -7 20 1 25 13 8 4 41 -10 41 -4 0 -6 -7 -3 -15 7 -18 -7 -20 -25 -2
-8 6 -2 -6 12 -27 25 -38 26 -41 10 -58 -20 -22 -61 -20 -76 3 -8 12 -4 25 13
50 18 25 20 31 8 26 -9 -3 -19 -1 -22 6 -3 9 -7 8 -15 -3 -7 -10 -6 -17 1 -21
9 -6 8 -12 -1 -23 -10 -11 -10 -20 -1 -37 12 -22 12 -22 -46 -15 -33 5 -69 8
-81 8 -24 0 -30 12 -13 23 14 8 0 35 -18 35 -13 0 -12 -3 4 -14 18 -14 18 -15
2 -21 -10 -4 -15 -11 -12 -16 7 -12 -3 -11 -27 1 -26 15 -24 32 9 63 l29 28
28 -33 c15 -18 25 -26 22 -17 -3 9 -1 21 5 27 6 6 7 16 3 22 -6 9 -9 9 -15 0
-6 -9 -12 -9 -28 1 -17 11 -24 11 -34 1 -14 -14 -32 -16 -23 -2 3 6 -1 10 -9
10 -19 0 -21 -26 -3 -33 9 -3 9 -7 -1 -20 -8 -9 -11 -25 -7 -38 7 -20 5 -21
-36 -16 -24 3 -49 6 -56 6 -7 1 -10 8 -6 19 6 16 5 16 -14 -1 -24 -21 -37 -22
-29 -1 4 9 2 13 -5 8 -6 -4 -16 0 -21 7 -8 11 -9 10 -4 -3 7 -22 -16 -24 -33
-4 -9 10 -8 16 4 26 9 8 20 21 26 31 8 15 6 17 -6 13 -23 -9 -45 -57 -35 -75
7 -12 4 -15 -13 -13 -12 1 -39 3 -60 3 -23 1 -36 5 -32 11 3 6 2 10 -4 10 -5
0 -13 -5 -16 -10 -12 -19 -26 -10 -20 13 7 22 7 22 -9 2 -13 -17 -17 -18 -25
-5 -5 8 -7 18 -4 24 3 5 1 6 -6 2 -6 -4 -9 -16 -6 -27 6 -19 2 -20 -64 -17
-66 2 -71 3 -65 23 4 16 3 17 -5 5 -5 -8 -13 -11 -17 -7 -4 3 -1 13 6 22 7 8
8 15 2 15 -5 0 -15 -7 -22 -15 -10 -12 -10 -18 0 -30 10 -12 10 -15 -3 -15 -8
0 -20 7 -27 15 -10 12 -8 20 9 41 17 21 19 29 9 36 -20 12 -38 9 -38 -7 0 -8
5 -15 10 -15 7 0 7 -7 0 -20 -6 -12 -9 -28 -6 -38 5 -15 -2 -18 -49 -20 -49
-3 -54 -1 -48 15 6 17 5 17 -14 0 -25 -22 -32 -22 -26 1 5 21 -22 49 -32 32
-3 -5 1 -10 10 -10 20 0 15 -19 -8 -34 -13 -8 -21 -7 -34 6 -15 16 -15 19 -1
35 8 10 18 25 22 33 4 8 -4 2 -19 -15 -16 -20 -24 -37 -20 -51 4 -18 -1 -23
-26 -28 -66 -13 -94 -5 -69 20 13 13 -9 64 -27 64 -7 0 -13 5 -13 10 0 6 -5
10 -12 10 -7 0 3 -16 22 -35 33 -34 33 -35 15 -55 -24 -26 -39 -26 -24 1 9 17
8 23 -2 30 -22 14 -36 10 -17 -5 10 -7 15 -16 11 -19 -3 -4 -12 -2 -20 4 -9 9
-13 8 -13 0 0 -6 5 -11 10 -11 6 0 10 -4 10 -10 0 -14 -13 -13 -35 4 -18 13
-18 14 4 50 17 28 19 35 7 30 -9 -4 -16 -1 -16 6 0 10 -3 10 -15 0 -10 -9 -12
-16 -6 -24 6 -7 8 -22 4 -34 -3 -12 0 -29 7 -37 11 -13 4 -15 -48 -15 -54 0
-61 2 -55 18 5 13 1 12 -19 -5 -29 -27 -36 -28 -66 -5 l-24 18 25 36 24 36 33
-31 c24 -24 29 -27 21 -10 -14 27 -14 36 -1 28 6 -3 7 1 3 10 -5 13 -7 14 -14
3 -7 -10 -12 -10 -27 -1 -15 9 -22 9 -31 0 -9 -9 -14 -8 -21 3 -7 12 -10 11
-16 -5 -5 -11 -3 -20 4 -23 9 -3 9 -9 2 -23 -8 -13 -7 -25 0 -39 10 -18 8 -20
-28 -18 -21 0 -39 6 -39 12 -1 6 -4 44 -6 84 -3 41 -2 85 4 98 6 17 6 23 -1
19 -7 -5 -8 65 -4 217 4 123 7 240 6 260 -1 20 2 39 6 42 4 2 5 39 1 83 -3 43
-5 104 -4 135 1 31 -1 56 -4 54 -3 -2 -7 12 -8 32 -2 21 -5 52 -8 70 -5 27 -3
32 7 26 8 -5 6 3 -5 19 -9 15 -13 27 -8 27 5 0 13 -5 16 -11 4 -5 12 -8 18 -6
14 4 37 -16 37 -32 0 -6 5 -11 10 -11 6 0 8 -11 4 -26 -4 -17 -2 -29 7 -36 11
-7 11 -11 2 -15 -7 -2 -13 -11 -13 -18 0 -20 21 -30 30 -15 9 15 90 22 90 8 0
-5 5 -6 11 -2 6 3 7 9 2 13 -5 3 -14 17 -20 31 l-11 25 -12 -27 c-16 -35 -20
-35 -54 1 -23 24 -25 31 -14 43 15 16 38 55 38 64 0 4 -9 -1 -20 -11 -19 -17
-20 -17 -20 -1 0 9 -4 15 -9 12 -16 -10 -41 5 -41 24 0 26 -18 34 -37 18 -14
-11 -16 -10 -11 14 3 15 1 25 -3 22 -5 -3 -9 20 -9 50 0 64 2 72 14 68 5 -2 3
4 -4 13 -15 18 -50 235 -38 235 5 0 1 14 -7 30 -9 17 -13 39 -10 50 3 10 1 21
-4 24 -5 4 -13 31 -17 62 -3 30 -12 61 -20 68 -7 8 -11 16 -9 20 3 3 2 3 -2 0
-5 -3 -8 -9 -8 -13 0 -4 -8 -15 -18 -25 -14 -14 -16 -28 -12 -69 3 -29 11 -69
17 -90 10 -31 9 -40 -2 -47 -9 -6 -17 -5 -22 2 -5 9 -13 9 -33 0 -20 -9 -24
-9 -19 0 5 8 2 9 -10 5 -10 -4 -23 -7 -29 -7 -7 0 -6 -4 3 -10 12 -8 12 -10
-5 -10 -17 0 -18 -2 -5 -11 11 -8 12 -12 3 -16 -7 -2 -13 -14 -13 -25 0 -10
-7 -26 -15 -34 -13 -14 -19 -12 -50 20 -20 21 -32 42 -29 50 3 8 3 19 0 25 -9
14 -53 -31 -47 -48 3 -9 0 -12 -7 -7 -7 4 -12 2 -12 -4 0 -7 -7 -10 -15 -6 -8
3 -14 0 -12 -7 1 -7 -5 -12 -13 -12 -8 0 -70 -56 -138 -125 -67 -69 -122 -120
-122 -115 0 6 -3 6 -8 0 -4 -6 -29 -29 -57 -50 -27 -22 -52 -42 -55 -45 -3 -3
-17 -11 -32 -19 -42 -21 -36 -58 31 -216 5 -11 15 -36 22 -55 14 -40 91 -197
139 -285 84 -154 132 -256 151 -320 40 -137 49 -155 74 -155 13 0 27 -5 30
-10 11 -18 43 -250 50 -360 4 -58 11 -139 16 -180 5 -41 11 -187 14 -325 3
-137 13 -299 21 -360 8 -60 15 -128 17 -150 2 -39 3 -40 47 -47 71 -12 289
-32 355 -32 413 -1 1654 17 1697 25 31 5 83 11 115 13 32 2 86 7 120 11 71 9
77 17 74 100 -1 28 3 144 9 260 6 116 15 352 20 525 6 212 15 343 25 400 17
90 23 126 24 149 1 10 9 12 31 8 33 -7 31 -12 70 153 15 65 52 149 154 355 74
149 141 293 150 320 53 170 56 207 17 220 -10 3 -29 15 -42 26 -13 12 -40 33
-59 48 -19 14 -39 31 -45 37 -5 5 -28 23 -50 39 -22 16 -78 65 -124 109 -46
45 -80 74 -76 66 5 -8 -7 -3 -27 13 -20 15 -41 27 -47 27 -6 0 -11 9 -11 21 0
13 4 18 12 13 7 -4 8 -3 4 4 -4 6 -13 9 -20 6 -8 -3 -17 0 -21 5 -10 17 -24 3
-18 -18 3 -13 -4 -29 -21 -46 -14 -14 -26 -31 -26 -38 0 -7 -6 -4 -14 6 -14
19 -36 23 -36 7 0 -5 -4 -10 -10 -10 -5 0 -10 7 -10 16 0 8 4 13 9 9 5 -3 12
-1 16 5 3 5 1 10 -5 10 -6 0 -8 5 -5 10 3 6 -1 17 -10 26 -21 21 -11 31 12 13
15 -12 15 -10 -1 9 -12 14 -23 19 -30 13 -6 -5 -20 -5 -31 -1 -11 4 -33 5 -49
2 -28 -5 -29 -4 -22 24 21 82 23 139 8 174 -8 19 -14 38 -14 43 3 11 -16 9
-23 -3z m51 -347 c-10 -10 -19 5 -10 18 6 11 8 11 12 0 2 -7 1 -15 -2 -18z
m-1991 -21 c-8 -8 -25 10 -19 20 4 6 9 5 15 -3 4 -7 6 -15 4 -17z m-105 9 c0
-6 -4 -13 -10 -16 -5 -3 -10 -12 -10 -18 0 -7 4 -6 10 3 8 13 10 13 10 -2 0
-9 3 -25 6 -35 5 -17 5 -17 -10 1 -8 10 -19 15 -24 12 -18 -11 -22 24 -5 44
19 21 33 26 33 11z m2077 -17 c2 -10 -6 -30 -17 -44 -16 -20 -20 -22 -20 -7 0
9 4 17 10 17 5 0 7 13 3 31 -5 25 -3 31 8 27 8 -2 15 -13 16 -24z m156 20 c8
-8 -3 -34 -14 -34 -5 0 -9 9 -9 20 0 19 11 26 23 14z m-33 -14 c0 -5 -4 -10
-10 -10 -5 0 -10 5 -10 10 0 6 5 10 10 10 6 0 10 -4 10 -10z m-2065 -30 c-4
-19 -3 -30 4 -30 6 0 11 -7 11 -15 0 -20 -10 -19 -26 3 -14 18 -18 54 -7 65
15 16 24 5 18 -23z m2033 10 c3 -9 -2 -11 -17 -7 -11 3 -21 1 -21 -4 0 -14 48
-11 53 4 2 6 8 8 13 4 5 -5 1 -15 -10 -23 -11 -8 -14 -14 -7 -14 7 0 11 -6 9
-12 -5 -15 -46 -20 -54 -7 -9 15 -34 10 -34 -6 0 -8 -4 -15 -10 -15 -12 0 -13
50 -2 65 9 13 54 34 66 31 6 -1 12 -8 14 -16z m-2089 -19 c8 -5 19 -25 26 -45
11 -30 10 -36 -1 -36 -8 0 -14 7 -14 15 0 17 -16 20 -25 5 -8 -13 -62 -13 -70
0 -3 6 1 13 9 16 9 3 16 17 16 30 0 18 5 24 23 24 12 0 28 -4 36 -9z m2156
-17 c14 -11 16 -18 8 -21 -18 -7 -16 -23 2 -23 8 0 15 -7 15 -15 0 -19 -10
-19 -36 0 -12 8 -24 11 -28 8 -3 -3 -6 1 -6 10 0 10 8 17 20 17 11 0 20 5 20
10 0 6 -7 10 -15 10 -8 0 -15 5 -15 10 0 14 12 12 35 -6z m-2250 -25 c-10 -16
-45 -31 -45 -19 0 5 7 10 15 10 8 0 14 3 14 8 -3 16 2 23 11 17 6 -4 8 -11 5
-16z m15 -41 c0 -6 -3 -8 -7 -5 -3 4 -12 2 -20 -4 -7 -6 -13 -8 -13 -3 0 4 -7
-1 -15 -12 -14 -19 -14 -19 -15 2 0 13 10 24 28 30 29 12 42 9 42 -8z m2160
12 c13 -8 13 -12 1 -32 -13 -21 -13 -22 3 -9 22 18 30 9 28 -35 -2 -52 -12
-76 -27 -70 -17 6 -30 -25 -14 -34 8 -6 8 -9 0 -14 -6 -4 -11 -2 -11 5 0 7 -3
10 -6 6 -3 -3 -17 6 -30 21 l-23 27 -1 -31 c0 -24 -5 -33 -22 -38 -34 -8 -39
4 -32 69 l7 58 25 -29 c17 -20 22 -23 17 -9 -4 11 -7 32 -6 48 1 15 -3 27 -9
27 -5 0 -10 5 -10 11 0 6 6 9 12 7 7 -3 26 4 43 14 35 21 35 21 55 8z m-2072
-36 c18 -12 26 -13 37 -4 12 10 15 9 15 -4 0 -10 -5 -14 -11 -10 -7 4 -10 -6
-8 -29 2 -20 0 -39 -4 -43 -4 -4 -7 -15 -7 -24 0 -9 -12 -23 -26 -31 -23 -12
-27 -11 -39 4 -10 13 -14 15 -17 5 -7 -19 -26 20 -28 57 -4 57 -1 70 12 57 19
-19 33 -14 15 6 -10 10 -14 22 -10 25 11 12 48 7 71 -9z m2140 -6 c-2 -7 3
-12 11 -13 16 0 28 -25 13 -25 -24 0 -42 13 -42 31 0 10 5 19 10 19 6 0 9 -5
8 -12z m-2248 -27 c0 -10 -7 -22 -16 -25 -8 -3 -12 -11 -8 -17 4 -8 3 -9 -4
-5 -7 4 -12 3 -12 -1 0 -8 17 -23 48 -42 11 -6 8 -16 -11 -44 l-24 -36 -12 56
c-15 77 -14 103 4 103 8 0 15 7 15 15 0 8 5 15 10 15 6 0 10 -9 10 -19z m2277
-27 c-3 -3 -12 -4 -19 -1 -8 3 -5 6 6 6 11 1 17 -2 13 -5z m-2092 -70 c4 -31
5 -57 3 -59 -2 -2 -15 -1 -30 2 -19 4 -28 12 -28 24 0 27 27 89 38 89 5 0 13
-25 17 -56z m2088 29 c-3 -16 -6 -36 -5 -45 2 -32 -14 -27 -33 9 -19 35 -19
35 0 49 31 23 46 18 38 -13z m-68 -72 c-3 -11 -1 -22 5 -26 6 -3 10 4 11 17 1
23 1 23 8 -2 9 -31 -14 -40 -33 -14 -10 13 -11 21 -2 30 15 18 18 17 11 -5z
m-2135 -1 c0 -5 -2 -10 -4 -10 -3 0 -8 5 -11 10 -3 6 -1 10 4 10 6 0 11 -4 11
-10z m220 0 c0 -5 -4 -10 -10 -10 -5 0 -10 5 -10 10 0 6 5 10 10 10 6 0 10 -4
10 -10z m1880 -10 c0 -5 -2 -10 -4 -10 -3 0 -8 5 -11 10 -3 6 -1 10 4 10 6 0
11 -4 11 -10z m-2146 -47 c-29 -21 -39 -15 -13 10 13 12 26 18 28 13 2 -5 -4
-15 -15 -23z m56 27 c0 -5 -5 -10 -11 -10 -5 0 -7 5 -4 10 3 6 8 10 11 10 2 0
4 -4 4 -10z m2010 -47 c0 -17 -4 -21 -17 -17 -16 5 -16 4 0 -9 28 -23 18 -59
-15 -63 -32 -3 -35 3 -10 22 14 10 15 15 5 25 -7 7 -13 26 -13 41 0 27 2 28
23 17 l22 -12 -20 23 -20 23 23 -14 c12 -8 22 -24 22 -36z m87 22 c-4 -8 -2
-17 3 -20 5 -3 7 -12 4 -19 -4 -10 2 -12 20 -9 32 7 56 -12 56 -43 0 -25 -15
-33 -22 -13 -6 19 -48 -9 -48 -31 0 -11 0 -23 0 -27 0 -5 11 -9 25 -10 14 -1
25 2 25 8 0 5 5 9 10 9 16 0 11 -39 -7 -57 -17 -17 -19 -17 -40 3 -13 12 -23
26 -23 31 0 5 -9 19 -21 31 -11 12 -17 27 -14 32 3 6 1 10 -4 10 -6 0 -11 4
-11 10 0 5 7 7 15 4 8 -4 15 -1 15 5 0 6 -5 11 -11 11 -7 0 -9 9 -5 24 4 15 1
26 -6 28 -19 7 0 38 23 38 14 0 19 -5 16 -15z m-1983 -11 c10 -26 7 -46 -10
-65 -14 -16 -15 -20 -1 -33 8 -8 16 -13 19 -11 2 2 4 -5 4 -15 0 -17 -2 -18
-17 -4 -15 13 -18 13 -32 0 -13 -14 -16 -14 -27 -1 -11 14 -7 19 13 16 4 0 7
10 7 24 0 14 7 28 15 31 8 4 15 11 15 16 0 6 -7 5 -15 -2 -23 -19 -28 -5 -10
29 17 34 30 39 39 15z m-86 -22 c2 -15 -2 -22 -14 -22 -13 0 -14 -3 -5 -14 8
-10 9 -16 1 -21 -5 -3 -10 -11 -10 -16 0 -6 5 -7 11 -3 17 10 4 -37 -22 -81
-38 -63 -76 -66 -91 -7 -6 22 6 31 17 12 3 -5 17 -10 31 -10 19 0 24 5 24 24
0 34 -26 53 -51 38 -17 -11 -19 -9 -19 18 0 24 6 33 26 40 14 6 30 8 35 4 9
-5 13 15 11 48 -2 28 52 18 56 -10z m2001 -88 c-14 -18 -24 -11 -15 11 3 9 11
13 16 10 8 -5 7 -11 -1 -21z m126 -25 c-7 -11 -35 -12 -35 -1 0 4 9 8 20 9 11
1 18 -2 15 -8z m-2205 -25 c0 -2 -7 -4 -15 -4 -8 0 -15 4 -15 10 0 5 7 7 15 4
8 -4 15 -8 15 -10z m2119 -23 c49 -47 52 -63 11 -56 -19 3 -30 1 -30 -7 0 -16
-13 -1 -17 20 -1 9 -5 32 -9 50 -3 17 -4 32 -1 32 3 0 24 -18 46 -39z m-2011
-16 c-1 -23 -8 -37 -20 -41 -10 -3 -18 -10 -18 -16 0 -5 -6 -8 -14 -5 -7 3
-19 0 -25 -6 -8 -8 -11 -7 -11 5 0 16 68 96 83 97 4 1 7 -15 5 -34z m1951 -22
c1 -7 -3 -13 -8 -13 -13 0 -21 27 -14 47 6 15 7 15 14 -3 4 -10 8 -25 8 -31z
m-1920 -24 c-13 -26 -23 -18 -14 10 3 12 11 19 16 16 5 -4 5 -14 -2 -26z m-39
-19 c0 -5 -4 -10 -10 -10 -5 0 -10 5 -10 10 0 6 5 10 10 10 6 0 10 -4 10 -10z
m1925 0 c-3 -5 -11 -10 -16 -10 -6 0 -7 5 -4 10 3 6 11 10 16 10 6 0 7 -4 4
-10z m106 -20 c5 0 8 -12 8 -27 -1 -21 -2 -23 -6 -8 -3 11 -9 24 -14 30 -5 5
-8 16 -8 25 1 11 2 11 6 -2 2 -10 9 -18 14 -18z m-2089 -12 c-7 -7 -12 -8 -12
-2 0 14 12 26 19 19 2 -3 -1 -11 -7 -17z m143 -28 c8 -57 -2 -167 -16 -176
-16 -9 -70 30 -84 61 -8 17 -13 42 -11 57 3 32 51 74 78 70 20 -4 25 23 6 31
-8 4 -7 6 4 6 12 1 18 -11 23 -49z m-121 16 c-3 -9 -12 -16 -20 -16 -11 0 -10
4 4 18 20 22 25 21 16 -2z m1985 -10 c-4 -59 -1 -70 16 -56 8 7 12 17 8 23 -4
7 -8 19 -8 28 -1 14 2 15 22 6 13 -6 22 -15 20 -21 -3 -6 0 -19 5 -28 12 -25
-15 -74 -55 -98 -50 -31 -51 -29 -61 87 -6 70 0 88 30 89 22 2 25 -2 23 -30z
m163 12 c-7 -7 -12 -8 -12 -2 0 6 3 14 7 17 3 4 9 5 12 2 2 -3 -1 -11 -7 -17z
m-2233 -31 c0 -21 -1 -21 -9 -2 -12 28 -12 37 0 30 6 -3 10 -16 9 -28z m77
-22 c-1 -33 -16 -33 -16 0 0 14 4 25 9 25 5 0 8 -11 7 -25z m2084 5 c0 -5 -5
-10 -11 -10 -5 0 -7 5 -4 10 3 6 8 10 11 10 2 0 4 -4 4 -10z m90 6 c0 -3 -4
-8 -10 -11 -5 -3 -10 -1 -10 4 0 6 5 11 10 11 6 0 10 -2 10 -4z m-80 -40 c0
-3 -4 -8 -10 -11 -5 -3 -10 -1 -10 4 0 6 5 11 10 11 6 0 10 -2 10 -4z m-2100
-26 c0 -5 -2 -10 -4 -10 -3 0 -8 5 -11 10 -3 6 -1 10 4 10 6 0 11 -4 11 -10z
m2123 -15 c4 -8 2 -17 -2 -20 -5 -2 -11 4 -14 15 -6 23 8 27 16 5z m-2143 -32
c0 -20 -3 -24 -11 -16 -7 7 -9 19 -6 27 10 24 17 19 17 -11z m2116 -11 c-4 -3
-14 2 -24 12 -16 18 -16 18 6 6 13 -6 21 -14 18 -18z m64 -40 c-23 -29 -26
-60 -6 -68 8 -3 14 -14 13 -25 -1 -14 -6 -17 -22 -13 -11 3 -24 10 -29 15 -14
13 -12 82 2 87 7 2 12 11 12 20 0 15 -2 15 -10 2 -8 -13 -10 -12 -10 3 0 10 8
17 20 17 11 0 20 6 20 13 1 7 7 4 15 -7 13 -17 12 -22 -5 -44z m-2140 33 c-7
-8 -18 -15 -24 -15 -6 0 -2 7 8 15 25 19 32 19 16 0z m-57 -21 c9 -4 17 -10
17 -16 0 -5 -8 -4 -19 2 -11 5 -26 10 -33 9 -10 0 -9 -2 1 -6 8 -3 26 -17 39
-30 18 -18 22 -30 17 -52 -5 -26 -22 -42 -41 -40 -4 0 -11 -5 -15 -13 -6 -8
-9 -9 -9 -1 0 6 -3 18 -6 26 -3 9 3 16 15 20 27 7 27 27 0 55 -21 23 -18 68 4
58 7 -3 20 -9 30 -12z m2027 -41 c0 -7 -7 -13 -15 -13 -16 0 -19 9 -9 35 5 13
8 14 15 3 5 -7 9 -19 9 -25z m-1875 8 c-3 -5 -1 -12 4 -15 4 -3 9 -17 9 -31 0
-23 -2 -24 -14 -8 -16 21 -18 63 -3 63 5 0 8 -4 4 -9z m1955 -47 c-18 -21 -24
-10 -9 18 8 14 14 18 17 10 2 -7 -2 -19 -8 -28z m-100 6 c0 -5 -5 -10 -11 -10
-5 0 -7 5 -4 10 3 6 8 10 11 10 2 0 4 -4 4 -10z m-1940 -28 c0 -15 -2 -15 -10
-2 -13 20 -13 33 0 25 6 -3 10 -14 10 -23z m1970 20 c0 -4 -6 -14 -12 -22 -11
-12 -10 -12 4 -2 19 15 31 2 22 -23 -5 -12 -9 -13 -14 -5 -4 7 -7 -5 -6 -25 1
-24 -4 -40 -12 -43 -9 -3 -13 2 -10 14 2 11 -3 25 -12 31 -13 11 -13 14 0 23
10 6 11 10 3 10 -19 0 -16 21 5 36 20 15 32 18 32 6z m-1890 -23 c0 -5 7 -9
15 -9 10 0 15 -11 15 -35 0 -25 -4 -35 -15 -35 -11 0 -14 -7 -9 -25 5 -20 3
-24 -10 -19 -15 6 -21 23 -17 52 1 8 -3 20 -10 28 -6 8 -9 18 -5 21 4 4 11 1
15 -6 6 -9 11 -10 15 -2 4 6 3 11 -2 11 -5 0 -12 9 -15 19 -3 14 -1 18 9 14 8
-3 14 -9 14 -14z m2047 -116 c-3 -10 -5 -2 -5 17 0 19 2 27 5 18 2 -10 2 -26
0 -35z m-2220 -25 c-2 -13 -4 -5 -4 17 -1 22 1 32 4 23 2 -10 2 -28 0 -40z
m133 -7 c-6 -12 -8 -26 -5 -31 3 -6 1 -10 -4 -10 -6 0 -11 4 -11 10 0 14 23
61 27 56 3 -2 0 -14 -7 -25z m1940 -7 c10 -25 -13 -79 -37 -89 -16 -5 -17 21
-3 30 6 4 8 16 4 27 -4 13 -2 18 4 14 6 -3 13 -2 17 3 3 6 -4 15 -15 21 -26
14 -26 30 1 23 11 -3 25 -16 29 -29z m25 26 c3 -5 1 -10 -4 -10 -6 0 -11 5
-11 10 0 6 2 10 4 10 3 0 8 -4 11 -10z m75 0 c0 -5 -4 -10 -10 -10 -5 0 -10 5
-10 10 0 6 5 10 10 10 6 0 10 -4 10 -10z m35 -10 c3 -5 1 -10 -4 -10 -6 0 -11
5 -11 10 0 6 2 10 4 10 3 0 8 -4 11 -10z m-2145 -16 c0 -8 -5 -12 -10 -9 -6 4
-8 11 -5 16 9 14 15 11 15 -7z m130 1 c0 -8 -7 -15 -15 -15 -8 0 -15 -7 -15
-16 0 -9 6 -14 13 -11 8 3 13 -10 14 -47 1 -28 -1 -44 -4 -36 -11 28 -38 57
-50 53 -8 -3 -7 7 2 34 7 21 18 38 23 38 6 0 14 3 18 8 11 10 14 9 14 -8z
m-173 -17 c-3 -8 -6 -5 -6 6 -1 11 2 17 5 13 3 -3 4 -12 1 -19z m2170 -15 c-8
-7 -37 9 -31 19 3 5 12 4 20 -3 8 -6 13 -14 11 -16z m-2127 -16 c0 -7 -12 -13
-26 -13 -24 -2 -25 -1 -7 16 19 18 33 17 33 -3z m2080 14 c0 -6 -4 -13 -10
-16 -5 -3 -10 1 -10 9 0 9 5 16 10 16 6 0 10 -4 10 -9z m-2050 -21 c0 -5 -5
-10 -11 -10 -5 0 -7 5 -4 10 3 6 8 10 11 10 2 0 4 -4 4 -10z m2111 -53 c-16
-16 -26 0 -10 19 9 11 15 12 17 4 2 -6 -1 -17 -7 -23z m-31 -2 c0 -8 -4 -15
-10 -15 -5 0 -7 7 -4 15 4 8 8 15 10 15 2 0 4 -7 4 -15z m-2112 -23 c2 -8 -5
-11 -19 -9 -13 2 -25 9 -27 15 -2 8 5 11 19 9 13 -2 25 -9 27 -15z m1989 -9
c-15 -16 -17 -16 -17 -1 0 9 6 18 13 21 20 7 22 -2 4 -20z m106 -8 c4 -8 2
-17 -3 -20 -6 -4 -10 -4 -10 -1 0 2 -3 11 -6 20 -3 9 -2 16 4 16 5 0 12 -7 15
-15z m-1968 -6 c12 -19 -5 -23 -22 -6 -16 16 -16 17 -1 17 9 0 20 -5 23 -11z
m-114 -32 c-8 -8 -11 -7 -11 4 0 20 13 34 18 19 3 -7 -1 -17 -7 -23z m32 8
c-3 -9 -8 -14 -10 -11 -3 3 -2 9 2 15 9 16 15 13 8 -4z m1937 -15 c0 -5 -2
-10 -4 -10 -3 0 -8 5 -11 10 -3 6 -1 10 4 10 6 0 11 -4 11 -10z m60 -18 c0
-15 -2 -15 -10 -2 -13 20 -13 33 0 25 6 -3 10 -14 10 -23z m-1970 -23 c-7 -11
-14 -19 -16 -16 -7 7 7 37 17 37 6 0 5 -9 -1 -21z m2056 9 c4 -6 3 -8 -4 -4
-5 3 -13 0 -15 -6 -3 -8 -6 -6 -6 5 -1 19 14 23 25 5z m-2126 -24 c0 -8 -4
-12 -10 -9 -5 3 -10 10 -10 16 0 5 5 9 10 9 6 0 10 -7 10 -16z m2006 -21 c-10
-10 -19 5 -10 18 6 11 8 11 12 0 2 -7 1 -15 -2 -18z m129 7 c3 -5 1 -10 -4
-10 -6 0 -11 5 -11 10 0 6 2 10 4 10 3 0 8 -4 11 -10z m-2025 -20 c0 -5 -4
-10 -10 -10 -5 0 -10 5 -10 10 0 6 5 10 10 10 6 0 10 -4 10 -10z m1934 -52 c6
-4 28 -5 49 -1 33 5 37 3 31 -12 -4 -10 -1 -20 6 -25 11 -7 11 -11 0 -25 -13
-16 -15 -16 -26 0 -6 9 -10 25 -7 36 4 15 2 18 -11 13 -9 -3 -16 -14 -16 -23
0 -17 -18 -41 -31 -41 -4 0 -15 7 -23 16 -13 12 -16 13 -16 1 0 -7 11 -20 25
-27 22 -12 27 -11 39 5 15 21 36 12 36 -17 0 -19 1 -19 19 3 l19 24 7 -36 c4
-20 6 -42 4 -50 -1 -8 1 -27 6 -42 6 -22 3 -32 -13 -48 -19 -17 -55 -29 -39
-13 3 4 2 15 -4 25 -6 13 -6 25 1 38 6 12 6 22 1 25 -5 4 -11 1 -13 -6 -6 -17
-28 0 -28 23 0 10 -4 19 -10 19 -5 0 -10 -4 -10 -10 0 -5 -7 -10 -15 -10 -9 0
-12 6 -8 16 5 14 3 15 -16 5 -12 -7 -26 -9 -32 -6 -16 10 -40 -16 -34 -36 8
-25 -4 -46 -16 -28 -5 8 -9 9 -9 3 0 -6 14 -23 30 -37 17 -15 30 -32 30 -37 0
-19 21 -10 30 14 19 50 91 -4 74 -56 -8 -26 -33 -5 -30 26 2 19 -1 22 -21 18
-12 -2 -23 -11 -23 -19 0 -8 -4 -12 -9 -9 -15 10 -21 -22 -6 -34 11 -9 12 -17
3 -33 -10 -20 -11 -20 -24 -2 -12 16 -14 16 -14 3 0 -9 -6 -18 -13 -21 -21 -8
-39 7 -31 26 3 10 1 17 -5 17 -6 0 -11 12 -11 27 0 26 0 26 -21 7 -20 -18 -20
-18 -1 -25 28 -11 34 -25 17 -39 -18 -15 -45 -6 -45 15 0 8 -4 15 -9 15 -5 0
-7 -8 -4 -19 3 -11 -2 -21 -11 -24 -9 -4 -16 -2 -16 4 0 6 -6 17 -14 24 -16
16 -56 9 -56 -10 0 -7 -7 -15 -15 -19 -19 -7 -21 24 -2 43 10 10 9 11 -5 6 -9
-4 -27 0 -40 9 -25 18 -53 22 -43 6 3 -5 1 -10 -5 -10 -6 0 -13 7 -16 15 -6
15 -26 22 -22 8 1 -5 -1 -23 -5 -42 l-7 -34 -26 24 -26 24 6 -22 c7 -22 5 -23
-64 -23 -44 0 -69 4 -65 10 5 9 77 32 101 33 14 0 17 74 4 82 -6 3 -10 2 -10
-4 0 -22 -31 -40 -60 -34 -26 5 -30 2 -30 -15 0 -12 -5 -24 -12 -28 -6 -4 -8
-3 -5 3 4 6 -2 21 -13 33 l-20 23 0 -21 c0 -38 -18 -24 -22 17 -2 30 0 37 8
30 9 -7 18 -1 30 20 10 17 24 31 31 31 8 0 16 7 19 15 9 23 23 18 30 -10 3
-14 10 -22 15 -19 5 3 9 0 9 -5 0 -6 -5 -11 -12 -11 -6 0 -9 -3 -6 -6 4 -3 15
-1 27 5 17 9 22 8 32 -11 11 -21 12 -21 25 -3 9 12 10 22 4 30 -14 17 34 140
53 136 4 0 16 -1 28 -1 12 0 23 -8 26 -20 6 -22 18 -26 28 -9 4 6 14 8 22 5 8
-3 21 1 29 9 17 17 34 20 34 5 0 -5 21 -7 50 -3 44 5 50 4 44 -11 -4 -11 -1
-16 10 -16 9 0 16 7 16 15 0 8 5 15 10 15 6 0 10 -7 10 -15 0 -22 18 -18 45
10 21 24 45 20 30 -5 -3 -5 -1 -10 4 -10 13 0 15 36 3 44 -5 3 -9 26 -10 53
-2 36 0 44 8 33 9 -13 13 -12 28 6 15 19 18 19 21 5 2 -9 8 -19 15 -23z m16
16 c0 -8 -4 -12 -10 -9 -5 3 -10 13 -10 21 0 8 5 12 10 9 6 -3 10 -13 10 -21z
m-2014 -31 c-11 -11 -17 4 -9 23 7 18 8 18 11 1 2 -10 1 -21 -2 -24z m34 22
c0 -8 2 -15 4 -15 2 0 11 -3 19 -6 10 -3 17 2 20 13 3 12 5 8 6 -10 0 -16 -4
-48 -10 -73 -9 -35 -9 -48 0 -57 10 -9 11 -6 6 16 -4 15 -3 27 2 27 13 0 53
-47 53 -63 1 -20 28 -50 39 -42 8 4 6 15 -5 35 -11 18 -14 34 -9 46 8 18 9 17
12 -3 5 -29 16 -29 34 -2 12 17 18 19 40 10 20 -7 32 -6 45 4 16 11 22 11 34
1 8 -7 30 -16 48 -19 24 -5 32 -3 32 8 0 8 6 15 13 15 6 0 22 3 34 6 17 5 24
-1 38 -33 9 -21 22 -48 28 -60 7 -16 7 -30 -1 -47 -16 -36 13 -44 32 -8 13 24
15 25 16 6 0 -11 -3 -24 -7 -28 -5 -4 -8 -25 -8 -47 0 -31 4 -39 18 -39 34 0
107 -22 101 -31 -3 -5 -34 -9 -69 -9 -52 0 -64 3 -67 17 -3 15 -4 15 -20 0
-16 -16 -18 -16 -28 2 -5 11 -10 30 -10 43 l-1 23 -19 -24 -20 -23 -1 28 c-1
17 -3 22 -6 12 -2 -10 -13 -18 -24 -18 -10 0 -19 -5 -19 -11 0 -6 -9 -9 -20
-6 -11 3 -20 1 -20 -4 0 -5 5 -9 10 -9 6 0 10 -9 10 -20 0 -14 -7 -20 -21 -20
-11 0 -18 4 -15 9 3 4 -6 19 -19 31 -22 21 -25 21 -25 5 0 -10 -10 -26 -22
-37 -19 -16 -24 -17 -33 -5 -8 11 -14 12 -28 3 -14 -8 -20 -8 -27 4 -14 21 -7
34 19 38 22 3 22 4 5 23 -17 19 -18 19 -32 -13 -8 -18 -14 -39 -13 -45 2 -15
-18 -17 -39 -3 -9 6 -17 5 -22 -3 -6 -9 -10 -8 -18 3 -13 19 -13 40 0 40 6 0
10 13 10 29 0 17 11 42 26 60 16 19 22 35 17 43 -4 7 -6 20 -5 30 4 21 -14 32
-55 35 -23 1 -33 -3 -33 -13 0 -8 -4 -14 -10 -14 -5 0 -10 7 -10 15 0 8 -5 15
-11 15 -7 0 -10 -12 -7 -29 4 -26 2 -29 -14 -20 -24 13 -43 2 -28 -16 12 -15
3 -65 -12 -65 -5 0 -16 7 -24 14 -11 12 -13 32 -9 93 3 43 7 87 8 98 0 11 8
26 16 33 14 12 14 13 1 9 -10 -3 -16 2 -16 13 0 13 5 16 16 11 8 -5 21 -6 28
-4 6 3 12 0 12 -7 0 -6 -4 -8 -10 -5 -6 4 -10 -6 -10 -24 0 -16 -7 -34 -15
-38 -13 -8 -13 -11 0 -28 11 -15 14 -16 15 -5 0 8 4 22 9 30 8 12 14 9 37 -13
15 -15 32 -27 38 -27 6 0 4 5 -4 10 -13 9 -12 12 4 25 11 8 17 17 14 20 -3 3
-12 -1 -21 -9 -13 -13 -16 -13 -31 3 -23 25 -20 58 5 66 14 5 19 13 16 26 -3
10 -1 19 4 19 5 0 9 -7 9 -15z m962 -90 c-2 -19 -1 -19 17 2 17 20 24 22 66
14 51 -10 79 -34 46 -39 -25 -4 -31 -21 -19 -52 l9 -25 16 26 c9 15 29 34 45
44 16 9 27 22 25 29 -3 8 7 12 29 13 25 1 34 -3 34 -15 0 -15 2 -15 10 -2 9
13 12 13 21 -3 7 -12 17 -16 30 -12 12 4 19 2 19 -6 0 -7 7 -5 16 7 11 13 17
15 20 7 8 -18 41 -16 52 3 14 25 82 11 75 -15 -5 -18 -49 -38 -60 -27 -3 3
-12 -2 -21 -10 -14 -14 -16 -14 -24 0 -5 9 -13 14 -18 11 -5 -3 -27 1 -49 9
-23 8 -44 10 -47 5 -3 -5 3 -12 13 -15 29 -9 47 -20 50 -31 3 -7 -4 -9 -14 -7
-11 3 -30 -5 -45 -19 -15 -14 -30 -22 -33 -19 -11 11 -24 -22 -18 -45 7 -29
-10 -30 -29 -2 -14 21 -15 21 -50 5 -21 -10 -43 -14 -50 -10 -7 4 -10 4 -6 -1
11 -12 -11 -35 -28 -28 -8 3 -14 1 -14 -5 0 -6 -11 -9 -25 -7 -14 1 -28 -2
-31 -6 -3 -5 1 -9 10 -9 35 0 14 -49 -22 -50 -10 0 -11 13 -7 51 4 34 2 49 -5
44 -5 -3 -10 -13 -10 -21 0 -8 -7 -14 -15 -14 -8 0 -15 4 -15 9 0 5 -8 8 -17
7 -12 -1 -22 11 -30 34 -11 32 -18 27 -14 -10 2 -12 0 -12 -7 -2 -5 7 -25 17
-46 22 -32 7 -36 6 -36 -11 0 -10 -4 -19 -9 -19 -5 0 -12 -10 -14 -22 -3 -13
-5 -1 -4 27 1 31 -2 50 -9 50 -7 0 -24 12 -38 26 -19 19 -33 25 -49 21 -19 -5
-20 -3 -9 11 8 9 23 17 35 19 19 3 21 8 19 38 -4 30 -2 33 12 21 9 -8 16 -9
16 -3 0 5 15 10 34 10 25 0 33 -4 29 -13 -2 -8 8 -20 24 -29 38 -19 60 -45 46
-54 -6 -4 -14 -17 -18 -30 -6 -21 -5 -22 13 -11 12 7 18 17 16 21 -3 4 2 18
10 29 14 20 13 23 -7 40 -18 14 -20 21 -11 36 6 10 23 18 37 18 15 1 30 4 34
8 15 16 48 3 45 -18z m178 5 c0 -5 -2 -10 -4 -10 -3 0 -8 5 -11 10 -3 6 -1 10
4 10 6 0 11 -4 11 -10z m-596 -25 c6 -17 36 -17 49 0 4 6 13 3 22 -9 8 -11 15
-15 15 -9 0 7 9 11 20 10 11 -1 20 -4 20 -8 0 -10 -70 -32 -77 -25 -4 3 -13 0
-21 -7 -12 -9 -16 -9 -19 1 -6 16 -23 15 -23 -2 0 -7 -8 -20 -17 -27 -17 -13
-17 -12 -4 4 13 16 13 20 1 27 -8 5 -18 6 -22 4 -5 -3 -12 5 -17 18 -7 19 -5
24 13 30 36 11 54 9 60 -7z m891 -56 c11 -17 -1 -21 -15 -4 -8 9 -8 15 -2 15
6 0 14 -5 17 -11z m-829 -44 c4 -8 11 -15 16 -15 16 0 47 -44 48 -67 0 -12 -8
-26 -17 -31 -16 -9 -16 -11 0 -27 9 -9 17 -24 16 -33 0 -13 -3 -11 -9 5 -5 12
-15 25 -23 30 -7 4 -17 17 -21 27 -5 15 -9 17 -18 8 -17 -17 -28 -15 -28 4 0
8 -4 13 -8 10 -4 -2 -14 -1 -20 3 -17 10 5 61 25 61 8 0 11 5 8 10 -7 12 2 30
16 30 5 0 12 -7 15 -15z m674 -5 c-6 -11 -15 -20 -21 -20 -6 0 -6 7 1 20 6 11
15 20 21 20 6 0 6 -7 -1 -20z m-600 6 c0 -2 3 -11 6 -20 9 -23 -9 -20 -24 4
-10 17 -10 20 3 20 8 0 15 -2 15 -4z m-655 -88 c10 -28 10 -46 0 -75 -8 -26
-45 -32 -45 -8 0 8 9 15 20 15 11 0 21 7 22 15 0 8 1 20 2 26 1 7 -9 15 -21
20 -21 7 -23 5 -23 -21 0 -31 -14 -47 -25 -30 -4 6 -4 27 -1 46 6 29 11 34 35
34 21 0 31 -6 36 -22z m668 -21 c2 -22 -1 -33 -8 -31 -6 3 -9 20 -7 40 5 43
12 39 15 -9z m542 33 c3 -5 1 -10 -4 -10 -6 0 -11 5 -11 10 0 6 2 10 4 10 3 0
8 -4 11 -10z m-1355 -10 c0 -5 -2 -10 -4 -10 -3 0 -8 5 -11 10 -3 6 -1 10 4
10 6 0 11 -4 11 -10z m130 -30 c0 -5 -5 -10 -11 -10 -5 0 -7 5 -4 10 3 6 8 10
11 10 2 0 4 -4 4 -10z m2060 -31 c0 -20 -38 -51 -53 -42 -5 3 -4 9 3 13 7 4
10 13 6 19 -4 6 -2 20 4 31 9 17 14 19 26 9 8 -6 14 -20 14 -30z m-127 14 c9
3 18 -1 21 -9 9 -23 -23 -29 -39 -8 -8 11 -14 24 -15 29 0 6 4 4 9 -4 5 -8 16
-11 24 -8z m-2025 -18 c8 -18 8 -26 0 -31 -8 -5 -5 -10 8 -15 18 -6 18 -7 1
-14 -24 -10 -47 12 -47 45 0 45 20 54 38 15z m850 -16 c3 -8 1 -11 -3 -7 -4 4
-15 3 -24 -1 -10 -6 -25 -4 -41 5 -19 10 -21 13 -7 14 10 0 20 7 24 15 5 14 8
14 26 2 12 -8 23 -20 25 -28z m462 30 c0 -6 7 -9 15 -5 20 7 14 -17 -7 -26
-18 -7 -58 0 -58 11 0 12 23 31 37 31 7 0 13 -5 13 -11z m-400 -9 c0 -5 -4
-10 -10 -10 -5 0 -10 5 -10 10 0 6 5 10 10 10 6 0 10 -4 10 -10z m30 -20 c0
-5 -7 -10 -16 -10 -8 0 -12 5 -9 10 3 6 10 10 16 10 5 0 9 -4 9 -10z m250 0
c0 -5 -4 -10 -10 -10 -5 0 -10 5 -10 10 0 6 5 10 10 10 6 0 10 -4 10 -10z"/>
<path d="M2801 3286 c-13 -16 -7 -36 10 -36 6 0 8 4 5 9 -4 5 0 11 6 14 10 3
10 8 2 16 -8 9 -14 8 -23 -3z"/>
<path d="M720 3263 c0 -5 5 -15 10 -23 7 -11 12 -12 21 -3 6 6 8 16 5 22 -8
12 -36 15 -36 4z"/>
<path d="M807 2743 c-3 -5 -4 -21 -3 -37 1 -36 24 -47 24 -11 0 14 -4 25 -9
25 -5 0 -6 7 -3 15 6 15 -1 21 -9 8z"/>
<path d="M2885 2590 c-3 -5 -1 -10 4 -10 6 0 11 5 11 10 0 6 -2 10 -4 10 -3 0
-8 -4 -11 -10z"/>
<path d="M2470 1830 c0 -5 5 -10 10 -10 6 0 10 5 10 10 0 6 -4 10 -10 10 -5 0
-10 -4 -10 -10z"/>
<path d="M2580 1829 c0 -6 -8 -8 -18 -5 -11 4 -19 1 -19 -6 0 -7 -3 -23 -7
-35 -10 -31 0 -29 35 6 29 30 37 51 19 51 -5 0 -10 -5 -10 -11z"/>
<path d="M2622 1815 c-17 -37 -15 -85 3 -85 8 0 15 5 15 10 0 6 -4 10 -10 10
-5 0 -10 9 -10 20 0 11 5 20 11 20 5 0 7 5 4 10 -3 6 1 13 9 16 19 7 21 24 3
24 -8 0 -19 -11 -25 -25z"/>
<path d="M2481 1801 c-9 -6 -10 -11 -2 -15 13 -8 31 1 31 15 0 11 -11 11 -29
0z"/>
<path d="M2426 1774 c-11 -8 -28 -12 -38 -8 -27 8 -21 -9 7 -23 21 -9 25 -9
25 4 0 8 4 12 9 9 5 -3 12 1 15 10 9 23 4 25 -18 8z"/>
<path d="M2341 1764 c0 -11 3 -14 6 -6 3 7 2 16 -1 19 -3 4 -6 -2 -5 -13z"/>
<path d="M2845 1760 c-3 -5 -2 -10 4 -10 5 0 13 5 16 10 3 6 2 10 -4 10 -5 0
-13 -4 -16 -10z"/>
<path d="M2465 1750 c-3 -5 1 -10 9 -10 9 0 16 5 16 10 0 6 -4 10 -9 10 -6 0
-13 -4 -16 -10z"/>
<path d="M2325 1730 c-3 -5 -1 -10 4 -10 6 0 11 5 11 10 0 6 -2 10 -4 10 -3 0
-8 -4 -11 -10z"/>
<path d="M2550 1736 c0 -2 7 -7 16 -10 8 -3 12 -2 9 4 -6 10 -25 14 -25 6z"/>
<path d="M2423 1703 c-7 -15 -11 -29 -8 -31 3 -3 5 0 5 6 0 7 5 12 10 12 6 0
10 -6 10 -14 0 -8 7 -17 16 -20 8 -3 13 -2 10 3 -7 11 39 20 66 13 11 -2 17
-10 14 -18 -3 -8 0 -11 10 -7 7 3 14 7 14 10 0 6 -28 33 -37 36 -4 1 -7 7 -7
14 1 6 -7 14 -18 16 -15 4 -17 2 -9 -7 17 -21 -1 -28 -22 -9 -19 17 -19 17
-12 -6 5 -16 4 -21 -4 -17 -6 4 -11 16 -11 27 0 27 -13 24 -27 -8z"/>
<path d="M2350 1709 c0 -21 27 -32 36 -16 4 7 4 9 -1 5 -4 -4 -14 0 -21 10
-12 15 -13 15 -14 1z"/>
<path d="M1090 1823 c0 -6 5 -15 10 -18 19 -11 10 -23 -12 -17 -21 5 -22 4 -9
-11 10 -13 17 -15 27 -6 8 6 14 15 14 18 0 13 -29 46 -30 34z"/>
<path d="M980 1813 c0 -5 14 -23 31 -42 24 -26 33 -31 42 -21 9 10 9 14 0 17
-7 3 -13 14 -13 25 0 14 -5 18 -15 15 -8 -4 -17 -2 -20 3 -7 12 -25 13 -25 3z"/>
<path d="M1130 1761 c0 -15 46 -32 65 -25 23 9 18 22 -7 21 -13 0 -31 3 -40 7
-11 5 -18 4 -18 -3z"/>
<path d="M953 1733 c-18 -7 -16 -20 2 -20 8 0 15 6 15 14 0 7 -1 13 -2 12 -2
0 -9 -3 -15 -6z"/>
<path d="M1086 1714 c-6 -21 -10 -23 -21 -14 -11 9 -12 7 -8 -8 3 -14 -1 -22
-16 -27 -12 -3 -21 -11 -21 -17 0 -6 11 -3 25 6 22 14 29 15 65 2 35 -12 41
-12 36 0 -3 7 -1 16 4 19 6 4 10 1 10 -4 0 -6 5 -11 12 -11 6 0 4 7 -5 18 -10
10 -17 25 -17 32 0 7 -3 10 -7 6 -4 -4 -8 -15 -8 -23 0 -9 -6 -18 -13 -20 -8
-3 -10 1 -5 14 6 16 5 16 -10 4 -15 -12 -17 -11 -17 2 0 9 7 23 16 31 13 14
13 16 1 16 -8 0 -18 -12 -21 -26z"/>
<path d="M1024 1722 c6 -11 -13 -17 -37 -13 -5 1 -6 -3 -3 -8 7 -10 43 -3 51
10 3 4 0 11 -6 15 -8 4 -9 3 -5 -4z"/>
<path d="M1250 1716 c0 -2 7 -7 16 -10 8 -3 12 -2 9 4 -6 10 -25 14 -25 6z"/>
<path d="M1220 1695 c0 -8 2 -15 4 -15 2 0 6 7 10 15 3 8 1 15 -4 15 -6 0 -10
-7 -10 -15z"/>
<path d="M1850 1860 c-13 -9 -13 -11 0 -20 10 -6 16 -6 18 0 7 20 -3 30 -18
20z"/>
<path d="M1527 1843 c-4 -3 -7 -11 -7 -17 0 -6 5 -5 12 2 6 6 9 14 7 17 -3 3
-9 2 -12 -2z"/>
<path d="M2042 1838 c2 -6 10 -14 16 -16 7 -2 10 2 6 12 -7 18 -28 22 -22 4z"/>
<path d="M1570 1806 c0 -21 20 -30 33 -17 9 9 8 14 -3 21 -21 14 -30 12 -30
-4z"/>
<path d="M1980 1800 c12 -22 30 -18 30 6 0 8 -9 14 -20 14 -18 0 -19 -3 -10
-20z"/>
<path d="M1913 1791 c-10 -16 -9 -20 8 -24 20 -5 22 -2 11 25 -7 17 -8 17 -19
-1z"/>
<path d="M1840 1775 c0 -8 7 -15 15 -15 8 0 15 4 15 9 0 5 -7 11 -15 15 -9 3
-15 0 -15 -9z"/>
<path d="M1900 1753 c0 -4 5 -15 10 -23 8 -13 10 -13 10 2 0 9 -4 20 -10 23
-5 3 -10 3 -10 -2z"/>
<path d="M1735 1740 c-3 -5 -1 -10 4 -10 6 0 11 5 11 10 0 6 -2 10 -4 10 -3 0
-8 -4 -11 -10z"/>
<path d="M1811 1711 c-8 -5 -9 -11 -3 -15 5 -3 15 1 22 9 14 16 3 20 -19 6z"/>
<path d="M1375 1730 c-3 -5 -1 -10 4 -10 6 0 11 5 11 10 0 6 -2 10 -4 10 -3 0
-8 -4 -11 -10z"/>
<path d="M1073 3811 c1 -14 9 -26 17 -28 10 -3 11 -2 4 4 -7 4 -14 17 -17 28
-5 16 -5 15 -4 -4z"/>
<path d="M2503 3815 c7 -7 18 -10 24 -8 21 8 14 21 -11 21 -19 0 -22 -3 -13
-13z"/>
<path d="M2590 3816 c0 -2 7 -9 15 -16 13 -11 14 -10 9 4 -5 14 -24 23 -24 12z"/>
<path d="M925 3778 l-16 -33 20 25 c20 24 26 40 16 40 -2 0 -12 -15 -20 -32z"/>
<path d="M2472 3768 c7 -13 11 -28 10 -35 -2 -7 7 -17 18 -23 16 -9 20 -8 20
6 0 13 3 14 15 4 30 -25 29 -4 -2 30 -30 32 -32 33 -27 10 5 -24 5 -24 -10 -6
-9 11 -16 23 -16 28 0 4 -5 8 -10 8 -7 0 -6 -8 2 -22z"/>
<path d="M2540 3784 c0 -23 24 -33 40 -16 13 14 12 15 -5 9 -11 -5 -22 -3 -27
5 -5 8 -8 9 -8 2z"/>
<path d="M980 3755 c-8 -9 -8 -15 -2 -15 12 0 26 19 19 26 -2 2 -10 -2 -17
-11z"/>
<path d="M1056 3761 c-4 -7 -5 -15 -2 -18 9 -9 19 4 14 18 -4 11 -6 11 -12 0z"/>
<path d="M2660 3760 c0 -5 5 -10 11 -10 5 0 7 5 4 10 -3 6 -8 10 -11 10 -2 0
-4 -4 -4 -10z"/>
<path d="M1006 3728 l-25 -33 -21 23 c-24 26 -35 28 -26 7 3 -8 1 -15 -4 -15
-6 0 -10 -7 -10 -16 0 -8 4 -13 9 -10 5 4 12 0 14 -6 3 -8 6 -6 6 5 1 13 7 16
26 11 18 -4 27 -1 31 10 3 9 10 13 15 10 5 -3 7 -9 4 -14 -3 -4 4 -10 14 -13
16 -4 19 0 17 22 -1 15 -8 25 -15 23 -9 -2 -11 3 -8 13 10 23 1 18 -27 -17z"/>
<path d="M2589 3743 c-10 -12 -11 -17 -2 -20 7 -2 9 -11 6 -20 -4 -11 -2 -14
5 -9 7 4 12 2 12 -3 0 -6 4 -11 9 -11 4 0 6 11 3 25 -2 14 -8 25 -13 25 -5 0
-6 7 -3 15 8 20 0 19 -17 -2z"/>
<path d="M2502 3670 c0 -14 2 -19 5 -12 2 6 2 18 0 25 -3 6 -5 1 -5 -13z"/>
<path d="M2545 3667 c-4 -10 -5 -21 -1 -24 10 -10 18 4 13 24 -4 17 -4 17 -12
0z"/>
<path d="M920 3661 c0 -6 4 -13 10 -16 6 -3 7 1 4 9 -7 18 -14 21 -14 7z"/>
<path d="M2590 3651 c0 -6 4 -13 10 -16 6 -3 7 1 4 9 -7 18 -14 21 -14 7z"/>
<path d="M2636 3651 c-7 -10 3 -41 13 -41 23 1 41 50 18 50 -5 0 -7 -7 -3 -15
3 -9 0 -15 -10 -15 -10 0 -14 6 -10 15 6 16 1 20 -8 6z"/>
<path d="M870 3631 c-13 -25 16 -54 31 -30 13 21 11 36 -6 43 -8 3 -19 -3 -25
-13z m22 -23 c-9 -9 -12 -7 -12 12 0 19 3 21 12 12 9 -9 9 -15 0 -24z"/>
<path d="M980 3641 c0 -6 5 -13 10 -16 6 -3 10 1 10 9 0 9 -4 16 -10 16 -5 0
-10 -4 -10 -9z"/>
<path d="M2480 3610 c5 -17 6 -38 3 -47 -5 -13 -3 -13 15 -2 32 20 32 32 1 57
l-28 22 9 -30z"/>
<path d="M931 3608 c-14 -23 -14 -23 8 -4 22 20 25 26 13 26 -4 0 -13 -10 -21
-22z"/>
<path d="M2253 3615 c-19 -21 -16 -27 7 -15 11 6 20 15 20 20 0 14 -13 12 -27
-5z"/>
<path d="M1270 3606 c0 -8 7 -16 15 -20 17 -6 18 -4 9 18 -8 20 -24 21 -24 2z"/>
<path d="M2610 3611 c0 -8 -7 -11 -15 -7 -8 3 -15 0 -15 -6 0 -9 -3 -9 -12 0
-24 24 -27 11 -7 -23 21 -36 36 -47 25 -20 -3 9 0 15 8 15 13 0 30 39 21 49
-3 2 -5 -1 -5 -8z"/>
<path d="M1034 3594 c4 -12 2 -15 -9 -10 -24 9 -17 -11 11 -31 l26 -19 -18
-37 c-21 -43 -27 -45 -64 -14 l-27 23 23 42 c30 53 30 60 2 36 -18 -16 -21
-17 -15 -2 4 12 2 15 -9 11 -16 -6 -19 -43 -4 -43 7 0 7 -7 0 -21 -8 -14 -8
-24 -1 -33 6 -7 10 -24 9 -36 -2 -13 3 -25 10 -27 6 -3 12 2 12 10 0 10 8 13
24 10 13 -3 27 0 30 6 4 6 12 11 17 11 6 0 7 -5 3 -11 -4 -7 -1 -10 7 -7 8 3
15 15 17 29 2 20 1 21 -8 9 -9 -12 -10 -9 -5 13 3 17 1 35 -6 44 -10 12 -10
16 1 23 11 7 11 11 1 24 -17 21 -35 21 -27 0z"/>
<path d="M1176 3563 c-10 -11 36 -40 87 -57 13 -4 17 -12 12 -27 -5 -15 -4
-19 4 -15 6 4 11 2 11 -3 0 -6 6 -11 14 -11 18 0 29 -27 13 -33 -7 -2 -9 -8
-4 -13 4 -4 15 0 24 9 13 13 14 19 4 31 -9 11 -9 15 0 18 14 5 3 48 -12 48 -6
0 -7 -9 -3 -22 6 -20 5 -21 -9 -10 -9 8 -19 22 -22 33 -4 10 -11 19 -17 19 -6
0 -18 8 -27 18 -15 16 -64 26 -75 15z"/>
<path d="M2520 3555 c-11 -13 -11 -19 2 -32 17 -16 38 -10 38 11 0 8 -6 19
-14 25 -10 9 -16 8 -26 -4z m30 -14 c0 -6 -4 -13 -10 -16 -5 -3 -10 1 -10 9 0
9 5 16 10 16 6 0 10 -4 10 -9z"/>
<path d="M991 3531 c-14 -26 10 -48 29 -26 13 16 7 45 -9 45 -6 0 -15 -9 -20
-19z m25 -18 c-10 -10 -19 5 -10 18 6 11 8 11 12 0 2 -7 1 -15 -2 -18z"/>
<path d="M2475 3518 c-8 -26 -16 -80 -8 -60 2 6 11 12 19 12 9 0 12 5 8 12 -4
6 3 4 16 -5 18 -12 28 -14 43 -5 17 9 19 8 14 -6 -4 -10 -1 -16 8 -16 8 0 15
-4 15 -10 0 -5 -6 -10 -14 -10 -8 0 -13 -7 -12 -15 3 -21 16 -31 16 -12 0 9 8
21 18 26 12 8 14 13 6 18 -15 10 -21 44 -10 61 16 27 -2 22 -30 -7 -21 -23
-31 -27 -41 -19 -7 6 -13 16 -13 23 0 7 -6 18 -14 24 -11 9 -15 7 -21 -11z"/>
<path d="M2630 3520 c0 -5 5 -10 11 -10 5 0 7 5 4 10 -3 6 -8 10 -11 10 -2 0
-4 -4 -4 -10z"/>
<path d="M890 3500 c-12 -8 -11 -10 7 -10 12 0 25 5 28 10 8 13 -15 13 -35 0z"/>
<path d="M1236 3468 c3 -4 9 -8 15 -8 5 0 9 4 9 8 0 5 -7 9 -15 9 -8 0 -12 -4
-9 -9z"/>
<path d="M1070 3425 c-7 -9 -11 -17 -9 -20 3 -2 10 5 17 15 14 24 10 26 -8 5z"/>
<path d="M2430 3430 c0 -5 5 -10 11 -10 5 0 7 5 4 10 -3 6 -8 10 -11 10 -2 0
-4 -4 -4 -10z"/>
<path d="M2515 3430 c-4 -6 -3 -16 3 -22 13 -13 23 4 13 21 -7 10 -10 10 -16
1z"/>
<path d="M940 3424 c0 -4 8 -12 17 -19 16 -12 16 -16 3 -41 -22 -45 -24 -49
-15 -42 13 12 34 -18 28 -41 -3 -11 0 -28 7 -36 7 -9 8 -15 2 -15 -16 0 -22
-54 -6 -63 8 -4 14 -15 14 -24 0 -14 2 -15 13 -4 10 10 9 14 -5 22 -22 12 -23
29 -3 29 9 0 12 6 8 16 -5 14 -3 14 16 2 16 -10 23 -10 29 -1 4 6 16 11 27 10
17 -2 20 4 21 38 0 22 -2 45 -5 50 -4 6 -6 21 -6 34 0 13 -6 26 -14 29 -10 3
-12 0 -8 -12 7 -18 -1 -20 -22 -7 -10 7 -19 4 -29 -7 -10 -13 -15 -14 -18 -4
-3 6 -12 12 -20 12 -13 0 -13 3 0 21 13 19 12 23 -5 40 -20 20 -29 24 -29 13z
m121 -110 l27 -26 -22 -33 c-25 -41 -34 -42 -64 -11 l-22 24 21 36 c11 20 24
36 27 36 3 0 18 -12 33 -26z"/>
<path d="M1016 3295 c-3 -8 -3 -22 1 -30 6 -17 25 -15 31 3 2 7 -2 10 -12 6
-9 -3 -16 -1 -16 5 0 6 7 11 16 11 8 0 12 5 9 10 -9 15 -22 12 -29 -5z"/>
<path d="M2604 3405 c-4 -10 -1 -21 7 -26 20 -12 34 -5 34 17 0 24 -33 31 -41
9z m31 -23 c-8 -8 -25 10 -19 20 4 6 9 5 15 -3 4 -7 6 -15 4 -17z"/>
<path d="M1010 3401 c0 -6 5 -13 10 -16 6 -3 10 1 10 9 0 9 -4 16 -10 16 -5 0
-10 -4 -10 -9z"/>
<path d="M2450 3400 c-13 -8 -13 -11 -1 -19 7 -5 11 -13 7 -19 -3 -6 -1 -12 5
-14 8 -3 8 -10 -2 -26 -10 -16 -11 -24 -2 -33 9 -9 7 -19 -9 -41 -11 -16 -17
-32 -14 -36 4 -3 11 0 16 8 6 8 10 11 10 5 0 -5 7 -1 15 9 13 17 15 17 21 3 7
-20 30 -22 37 -4 4 7 8 3 13 -11 5 -18 9 -20 20 -11 17 14 18 36 2 42 -10 4
-10 8 1 15 9 7 11 19 7 36 -4 16 -2 26 4 26 6 0 8 5 4 11 -3 6 -1 15 6 19 8 5
9 10 2 14 -6 3 -18 -1 -26 -10 -12 -12 -20 -13 -29 -5 -7 5 -24 7 -37 4 -16
-4 -21 -3 -16 5 4 7 1 12 -9 12 -11 0 -15 5 -11 15 6 18 6 18 -14 5z m98 -77
l23 -36 -29 -30 -30 -30 -24 39 -25 38 26 28 c14 15 28 27 31 27 3 0 15 -16
28 -36z"/>
<path d="M2496 3311 c-10 -16 5 -42 23 -39 21 4 21 42 -1 46 -9 2 -19 -1 -22
-7z m34 -22 c0 -5 -4 -9 -10 -9 -5 0 -10 7 -10 16 0 8 5 12 10 9 6 -3 10 -10
10 -16z"/>
<path d="M903 3384 c-3 -8 -1 -20 5 -26 15 -15 43 8 35 28 -7 19 -32 18 -40
-2z m27 -4 c0 -5 -4 -10 -10 -10 -5 0 -10 5 -10 10 0 6 5 10 10 10 6 0 10 -4
10 -10z"/>
<path d="M4004 3276 c-28 -28 -34 -41 -34 -78 0 -74 58 -110 139 -88 61 16 52
33 -13 25 -50 -7 -57 -5 -81 19 -30 30 -28 64 3 100 34 37 80 37 203 2 l56
-16 -35 -95 c-27 -72 -40 -95 -55 -97 -28 -4 -34 -28 -8 -28 21 0 21 0 -3 -66
-36 -98 -86 -142 -151 -130 -51 10 -69 39 -66 105 1 32 63 91 95 91 16 0 26 6
26 15 0 31 -79 5 -120 -40 -21 -22 -25 -37 -25 -85 0 -43 5 -63 19 -79 46 -51
144 -44 195 14 24 28 44 70 76 163 3 8 30 12 88 12 l84 0 -33 -87 c-42 -114
-49 -156 -34 -194 14 -33 57 -56 73 -40 7 7 1 14 -16 22 -55 25 -52 45 53 340
48 136 75 228 70 233 -11 11 -34 -40 -74 -161 l-28 -83 -85 0 c-64 0 -84 3
-81 13 3 6 15 44 28 82 15 46 35 82 57 104 38 38 32 64 -7 33 -23 -19 -25 -19
-109 4 -124 34 -165 32 -207 -10z"/>
<path d="M8744 3281 c-16 -17 -54 -75 -84 -130 -49 -89 -58 -101 -82 -101 -34
0 -47 -19 -19 -27 12 -3 21 -7 21 -10 0 -3 -16 -29 -36 -58 -58 -87 -130 -119
-174 -75 -11 11 -20 31 -20 44 0 33 46 76 81 76 33 0 39 16 9 25 -31 10 -86
-22 -105 -61 -22 -48 -12 -90 28 -115 72 -43 138 -7 226 124 l32 47 68 0 69 0
-28 -75 c-60 -160 -60 -224 -2 -246 36 -14 53 6 19 22 -53 24 -50 55 34 287
64 176 79 245 60 280 -17 32 -62 29 -97 -7z m76 -38 c0 -21 -12 -73 -26 -115
l-26 -78 -64 0 c-35 0 -64 2 -64 4 0 13 113 203 127 214 9 6 25 12 35 12 14 0
18 -8 18 -37z"/>
<path d="M2605 3280 c3 -5 13 -10 21 -10 8 0 12 5 9 10 -3 6 -13 10 -21 10 -8
0 -12 -4 -9 -10z"/>
<path d="M910 3260 c0 -5 6 -10 14 -10 8 0 18 5 21 10 3 6 -3 10 -14 10 -12 0
-21 -4 -21 -10z"/>
<path d="M4976 3241 c-4 -5 -26 -66 -51 -135 -24 -69 -54 -144 -65 -166 -39
-77 -128 -104 -159 -48 -14 24 -13 32 3 83 21 68 79 137 110 133 18 -3 21 -9
19 -45 -1 -24 3 -43 8 -43 10 0 29 42 29 66 0 21 -37 54 -62 54 -33 0 -110
-86 -132 -149 -26 -75 -82 -131 -129 -131 -28 0 -40 6 -53 26 -27 41 -10 72
52 95 93 35 138 100 96 141 -62 62 -182 -75 -182 -208 0 -34 5 -47 26 -63 45
-36 100 -26 157 27 21 20 27 22 27 10 0 -23 48 -58 79 -58 14 0 39 7 55 15 33
17 39 19 31 6 -3 -5 -1 -13 5 -16 6 -4 17 9 24 27 8 18 28 68 46 111 39 93 72
137 106 137 36 0 38 -34 9 -119 -27 -81 -32 -130 -13 -149 21 -21 59 -13 89
19 27 28 29 29 29 10 0 -31 41 -47 79 -31 16 6 37 20 46 30 13 15 21 16 45 7
25 -10 34 -8 57 9 38 28 69 82 55 96 -7 7 -14 3 -22 -13 -20 -38 -52 -69 -71
-69 -28 0 -30 15 -9 62 10 24 22 62 26 85 5 36 3 45 -19 67 -15 14 -35 26 -46
26 -37 0 -83 -52 -124 -140 -48 -105 -73 -140 -98 -140 -22 0 -26 40 -8 87 26
68 38 134 29 158 -11 29 -52 42 -86 26 -13 -6 -24 -10 -24 -8 0 1 9 26 21 56
12 34 17 57 11 63 -6 6 -12 6 -16 -1z m-350 -145 c9 -25 -14 -53 -61 -76 -52
-25 -62 -22 -45 12 32 62 93 98 106 64z m672 2 c15 -15 15 -40 1 -88 -9 -29
-15 -36 -30 -33 -16 5 -19 0 -19 -33 0 -44 -31 -84 -66 -84 -30 0 -37 27 -23
87 15 59 30 91 65 132 27 33 52 39 72 19z"/>
<path d="M2610 3230 c0 -5 5 -10 11 -10 5 0 7 5 4 10 -3 6 -8 10 -11 10 -2 0
-4 -4 -4 -10z"/>
<path d="M1115 3219 c-4 -6 -5 -12 -2 -15 2 -3 7 2 10 11 7 17 1 20 -8 4z"/>
<path d="M2575 3200 c-3 -5 -1 -10 4 -10 6 0 11 5 11 10 0 6 -2 10 -4 10 -3 0
-8 -4 -11 -10z"/>
<path d="M2500 3169 c0 -11 5 -17 10 -14 6 3 10 13 10 21 0 8 -4 14 -10 14 -5
0 -10 -9 -10 -21z"/>
<path d="M2603 3183 c-17 -6 -16 -28 0 -42 10 -8 17 -7 25 1 24 24 6 52 -25
41z m17 -23 c0 -5 -2 -10 -4 -10 -3 0 -8 5 -11 10 -3 6 -1 10 4 10 6 0 11 -4
11 -10z"/>
<path d="M1035 3169 c-4 -6 -3 -15 3 -21 6 -6 11 -4 15 6 7 18 -9 31 -18 15z"/>
<path d="M1080 3172 c0 -6 7 -15 16 -20 9 -5 14 -15 10 -21 -4 -6 -12 -8 -18
-5 -8 5 -9 1 -5 -10 5 -14 3 -17 -8 -12 -22 8 -18 -8 10 -38 17 -18 25 -22 25
-12 0 8 -5 18 -11 22 -7 4 -7 9 -2 13 22 14 23 58 3 76 -11 10 -20 13 -20 7z"/>
<path d="M2550 3167 c0 -7 5 -18 12 -25 9 -9 8 -12 -5 -12 -9 0 -17 -5 -17
-11 0 -8 -4 -8 -13 -1 -7 6 -23 9 -35 5 -13 -3 -22 -1 -22 6 0 6 -7 11 -16 11
-11 0 -14 5 -9 18 5 13 3 14 -6 5 -9 -9 -8 -19 4 -42 9 -17 11 -33 6 -37 -5
-3 -9 -10 -9 -17 0 -6 15 4 34 22 l33 32 23 -36 23 -36 -34 -35 c-18 -19 -28
-34 -23 -34 6 0 15 5 22 12 9 9 12 8 12 -5 0 -9 7 -17 15 -17 19 0 20 -16 1
-23 -20 -8 -28 -98 -10 -118 11 -13 12 -20 1 -42 -15 -34 -21 -34 -46 2 -26
36 -26 36 0 73 l22 30 -21 -7 c-16 -4 -21 -2 -19 7 2 7 2 10 0 5 -3 -4 -9 -5
-14 -1 -5 3 -9 1 -9 -5 0 -5 5 -13 10 -16 6 -3 7 -17 4 -30 -3 -14 1 -33 11
-48 10 -15 12 -28 6 -31 -5 -4 -12 2 -14 11 -4 14 -5 13 -6 -4 0 -13 -6 -23
-13 -23 -6 0 -8 -3 -5 -6 4 -4 18 1 31 10 16 10 27 12 31 5 4 -5 16 -7 27 -3
13 4 18 2 14 -4 -3 -6 -2 -13 4 -17 5 -3 7 -17 4 -30 -3 -12 -1 -26 4 -29 6
-4 8 2 5 14 -3 11 -1 20 5 20 6 0 14 9 17 20 4 11 11 17 17 14 7 -5 8 -2 3 6
-6 10 -11 9 -22 -5 -12 -18 -13 -18 -13 3 0 12 -5 22 -11 22 -6 0 -8 8 -4 20
3 10 1 28 -5 40 -6 11 -7 20 -2 20 16 0 21 41 9 62 -10 16 -9 22 8 34 16 12
17 16 6 23 -8 5 -11 16 -7 26 5 13 2 16 -10 11 -15 -6 -15 -4 -1 17 11 17 12
28 4 42 -7 14 -7 20 1 23 7 2 12 10 12 17 0 7 6 15 13 18 8 3 6 9 -7 19 -10 8
-16 20 -12 26 4 7 2 12 -3 12 -6 0 -11 -6 -11 -13z"/>
<path d="M9517 3174 c-12 -12 -8 -57 7 -73 13 -14 10 -25 -20 -91 -41 -87 -59
-110 -89 -110 -33 0 -34 6 -9 68 39 94 29 154 -26 167 -48 11 -85 -25 -138
-137 -52 -108 -81 -144 -107 -135 -21 9 -19 32 10 117 30 87 31 121 7 143 -26
24 -56 21 -90 -8 -35 -29 -42 -31 -42 -10 0 9 -12 21 -26 27 -21 10 -31 9 -55
-4 -26 -15 -29 -15 -29 -2 0 9 -5 14 -11 12 -12 -4 -108 -261 -109 -290 0 -36
19 -17 35 35 39 120 108 227 147 227 33 0 31 -43 -6 -155 -41 -123 -40 -115
-23 -115 7 0 25 37 41 83 44 123 94 193 133 185 28 -5 27 -41 -2 -133 -17 -54
-24 -92 -20 -107 15 -45 49 -50 93 -13 l30 25 16 -25 c22 -33 57 -32 98 4 27
23 37 27 58 19 54 -20 96 16 139 122 30 72 34 75 70 60 33 -13 34 -20 4 -104
-21 -63 -17 -104 12 -118 37 -17 69 2 104 64 17 29 31 59 31 66 0 25 -20 10
-41 -30 -28 -56 -48 -78 -71 -78 -25 0 -24 49 2 125 11 32 20 64 20 70 0 7
-19 20 -42 29 -40 15 -43 18 -43 53 0 33 -3 38 -25 41 -14 2 -29 0 -33 -4z
m33 -36 c0 -18 -2 -20 -9 -8 -6 8 -7 18 -5 22 9 14 14 9 14 -14z m-152 -74 c4
-48 -15 -105 -27 -85 -12 18 -24 -3 -23 -40 1 -34 -43 -81 -72 -77 -47 7 -17
152 44 218 42 45 74 39 78 -16z"/>
<path d="M5670 3114 c-69 -59 -117 -226 -76 -267 24 -24 49 -21 84 8 30 25 31
25 37 5 9 -30 51 -37 82 -13 36 26 89 121 75 135 -7 7 -15 0 -27 -23 -30 -59
-65 -99 -87 -99 -19 0 -20 4 -15 43 3 23 22 83 40 132 23 58 32 94 25 100 -6
7 -13 4 -19 -8 -9 -16 -12 -16 -32 -2 -31 21 -51 19 -87 -11z m81 -20 c27 -32
-59 -218 -107 -230 -34 -9 -46 10 -39 61 12 83 76 185 116 185 9 0 22 -7 30
-16z"/>
<path d="M6097 3113 c-26 -53 -100 -274 -93 -280 10 -11 22 8 50 83 30 80 83
172 107 187 26 16 49 1 49 -31 0 -15 -13 -68 -30 -117 -33 -97 -36 -119 -18
-113 6 2 24 41 39 86 28 84 76 165 104 176 54 20 63 -10 30 -110 -27 -87 -31
-134 -13 -152 21 -21 59 -13 89 19 18 19 29 25 29 17 0 -19 32 -48 53 -48 8 0
29 11 45 25 30 25 31 25 37 5 7 -22 9 -22 71 -25 41 -1 42 -1 59 50 52 147
102 225 144 225 32 0 34 -38 6 -119 -27 -81 -32 -130 -13 -149 21 -21 59 -13
89 19 19 21 29 26 29 16 0 -23 28 -47 54 -47 12 0 37 13 56 28 29 25 37 27 62
18 23 -8 32 -7 55 10 38 28 69 82 55 96 -7 7 -14 3 -22 -13 -20 -38 -52 -69
-71 -69 -28 0 -30 15 -9 62 46 104 31 171 -39 171 -44 0 -76 -34 -123 -133
-51 -107 -74 -140 -99 -140 -22 0 -26 40 -8 87 26 68 38 134 29 158 -11 29
-55 43 -82 26 -14 -9 -23 -9 -33 -1 -16 14 -15 16 -60 -105 -42 -112 -76 -165
-107 -165 -19 0 -20 4 -15 43 3 23 22 83 40 132 23 58 32 94 25 100 -6 7 -13
4 -19 -8 -9 -16 -12 -16 -32 -2 -53 37 -104 -4 -164 -135 -49 -105 -67 -130
-95 -130 -25 0 -24 49 2 118 26 69 27 138 1 152 -30 16 -53 12 -85 -13 l-29
-23 -23 23 c-27 27 -51 29 -83 6 -14 -9 -21 -11 -17 -5 3 6 2 13 -3 17 -6 3
-16 -7 -24 -22z m511 -15 c18 -18 15 -32 -19 -113 -34 -82 -68 -125 -98 -125
-29 0 -36 37 -18 98 19 64 33 90 65 125 28 29 51 34 70 15z m520 0 c15 -15 14
-53 -2 -97 -8 -23 -15 -31 -20 -23 -13 21 -26 3 -26 -35 0 -43 -32 -83 -66
-83 -30 0 -37 33 -20 96 16 62 31 91 64 127 28 29 51 34 70 15z"/>
<path d="M7513 3120 c-39 -24 -90 -110 -99 -168 -18 -118 81 -164 173 -79 l22
20 11 -27 c5 -14 17 -29 25 -32 24 -10 65 5 91 31 21 21 29 23 46 14 11 -6 29
-8 40 -6 16 5 19 2 15 -14 -3 -10 -1 -22 4 -25 9 -5 16 8 74 149 31 76 73 127
103 127 34 0 35 -35 7 -120 -40 -120 -24 -178 42 -154 31 11 93 104 93 139 -1
20 -1 20 -16 0 -8 -11 -28 -41 -44 -67 -20 -32 -36 -48 -50 -48 -27 0 -27 38
1 116 26 76 27 133 3 151 -22 16 -56 17 -72 1 -8 -8 -15 -8 -26 1 -18 15 -24
5 -55 -91 -29 -89 -59 -132 -94 -136 -32 -4 -33 -2 -7 66 28 72 27 136 -2 156
-12 9 -30 16 -40 16 -33 0 -86 -60 -126 -144 -45 -94 -87 -136 -137 -136 -45
0 -59 20 -53 80 6 59 51 137 91 160 26 14 29 14 42 -4 10 -13 11 -25 4 -43
-12 -32 -12 -33 5 -33 33 0 36 82 4 104 -29 20 -36 20 -75 -4z m278 -33 c15
-34 -6 -109 -29 -105 -13 2 -18 -7 -23 -41 -6 -47 -36 -81 -70 -81 -38 0 -32
85 12 173 39 76 89 100 110 54z"/>
<path d="M2485 3068 c-9 -27 9 -45 29 -29 16 14 12 37 -9 45 -8 3 -17 -4 -20
-16z m25 -14 c0 -8 -4 -12 -10 -9 -5 3 -10 10 -10 16 0 5 5 9 10 9 6 0 10 -7
10 -16z"/>
<path d="M1041 3056 c-12 -14 -5 -46 10 -46 4 0 13 9 18 19 14 25 -10 49 -28
27z m15 -23 c-10 -10 -19 5 -10 18 6 11 8 11 12 0 2 -7 1 -15 -2 -18z"/>
<path d="M2456 3038 c3 -10 1 -18 -5 -18 -6 0 -8 -7 -5 -15 4 -8 1 -15 -6 -15
-6 0 -8 -5 -4 -11 4 -7 9 -7 13 -2 3 5 14 14 24 20 17 9 17 11 -2 34 -14 16
-19 18 -15 7z"/>
<path d="M2590 3040 c0 -5 7 -10 15 -10 8 0 15 5 15 10 0 6 -7 10 -15 10 -8 0
-15 -4 -15 -10z"/>
<path d="M945 3029 c-10 -15 3 -25 16 -12 7 7 7 13 1 17 -6 3 -14 1 -17 -5z"/>
<path d="M970 2955 c0 -2 9 -13 20 -23 13 -12 18 -25 14 -35 -9 -24 -22 -21
-26 6 -4 31 -33 29 -33 -3 0 -15 6 -26 15 -26 8 -1 21 -2 29 -3 8 -1 11 -8 8
-21 -3 -13 0 -20 9 -20 12 0 12 -4 4 -20 -6 -12 -8 -30 -5 -40 4 -12 2 -20 -5
-20 -6 0 -8 -5 -4 -11 3 -6 0 -15 -7 -20 -10 -7 -11 -11 -3 -16 7 -5 14 -17
17 -28 4 -11 5 -7 3 9 -4 32 17 62 36 50 7 -4 2 6 -10 23 -22 31 -22 32 -5 67
20 39 37 46 47 19 6 -15 9 -14 20 7 13 26 12 40 -4 40 -5 0 -7 -7 -3 -16 5
-14 3 -15 -14 -6 -13 7 -23 8 -30 1 -12 -12 -45 -1 -37 12 3 5 9 7 14 4 4 -3
7 3 6 12 -1 21 -56 77 -56 58z m0 -55 c0 -5 -4 -10 -10 -10 -5 0 -10 5 -10 10
0 6 5 10 10 10 6 0 10 -4 10 -10z"/>
<path d="M2490 2936 c0 -9 5 -16 10 -16 6 0 10 4 10 9 0 6 -4 13 -10 16 -5 3
-10 -1 -10 -9z"/>
<path d="M2582 2937 c-16 -19 11 -58 28 -41 14 14 10 46 -6 51 -6 2 -16 -2
-22 -10z m28 -17 c0 -5 -4 -10 -10 -10 -5 0 -10 5 -10 10 0 6 5 10 10 10 6 0
10 -4 10 -10z"/>
<path d="M1050 2924 c0 -8 5 -12 10 -9 6 4 8 11 5 16 -9 14 -15 11 -15 -7z"/>
<path d="M2500 2845 c0 -6 6 -17 13 -24 10 -12 9 -13 -7 -7 -16 5 -17 4 -6 -9
12 -14 30 -12 30 4 0 12 -29 47 -30 36z"/>
<path d="M1050 2821 c0 -5 5 -13 10 -16 6 -3 10 -2 10 4 0 5 -4 13 -10 16 -5
3 -10 2 -10 -4z"/>
<path d="M1035 2790 c3 -5 11 -10 16 -10 6 0 7 5 4 10 -3 6 -11 10 -16 10 -6
0 -7 -4 -4 -10z"/>
<path d="M955 2780 c-3 -5 -2 -10 4 -10 5 0 13 5 16 10 3 6 2 10 -4 10 -5 0
-13 -4 -16 -10z"/>
<path d="M1070 2775 c-7 -9 -10 -18 -7 -21 3 -3 10 4 17 15 13 25 8 27 -10 6z"/>
<path d="M1087 2764 c-4 -4 -7 -14 -7 -23 0 -11 3 -12 11 -4 6 6 10 16 7 23
-2 6 -7 8 -11 4z"/>
<path d="M2510 2700 c0 -5 5 -10 10 -10 6 0 10 5 10 10 0 6 -4 10 -10 10 -5 0
-10 -4 -10 -10z"/>
<path d="M2587 2703 c-12 -12 -7 -23 7 -17 11 4 13 0 9 -18 -4 -18 -3 -20 7
-12 7 7 9 21 5 33 -6 21 -16 26 -28 14z"/>
<path d="M1035 2691 c-3 -5 -1 -12 5 -16 5 -3 10 1 10 9 0 18 -6 21 -15 7z"/>
<path d="M956 2683 c-9 -10 -7 -43 3 -43 5 0 7 10 4 23 -4 18 -3 19 6 7 7 -9
11 -10 11 -3 0 15 -15 25 -24 16z"/>
<path d="M2460 2646 c0 -8 6 -16 13 -19 10 -4 10 -7 0 -18 -7 -7 -13 -18 -13
-23 0 -6 11 2 25 18 25 29 34 53 16 41 -5 -3 -12 -1 -16 5 -9 15 -25 12 -25
-4z"/>
<path d="M2567 2653 c-10 -3 -14 -10 -11 -16 5 -8 2 -8 -7 1 -27 25 -31 11 -5
-22 31 -42 32 -48 6 -71 -21 -19 -28 -41 -9 -30 16 11 40 -27 27 -43 -17 -20
-5 -21 15 0 9 10 13 18 7 18 -5 0 -10 9 -10 19 0 11 -5 21 -11 23 -9 3 -8 10
2 25 10 18 11 24 0 37 -8 9 -9 16 -3 16 5 0 12 11 14 25 3 14 5 24 4 24 0 -1
-9 -3 -19 -6z"/>
<path d="M1084 2635 c6 -17 -2 -19 -24 -5 -10 6 -20 4 -32 -7 -17 -15 -18 -15
-18 0 0 10 -6 17 -13 17 -7 0 -13 -9 -13 -20 0 -11 3 -20 7 -20 3 0 5 -27 3
-60 -3 -39 0 -60 7 -60 6 0 9 7 5 15 -4 13 -2 14 14 5 26 -14 26 2 0 25 -25
23 -25 30 1 72 l21 34 27 -30 26 -29 1 39 c1 21 -3 39 -8 39 -6 0 -8 -7 -4
-15z"/>
<path d="M2504 2596 c-4 -9 -4 -20 0 -23 3 -4 6 1 6 11 0 10 5 14 11 10 6 -3
9 -15 6 -25 -3 -11 -1 -17 4 -13 14 8 11 30 -6 44 -12 10 -16 9 -21 -4z"/>
<path d="M1034 2576 c-3 -8 -2 -22 3 -30 7 -13 11 -12 22 7 13 20 13 21 -2 8
-15 -11 -17 -11 -17 2 0 8 6 18 13 20 9 4 9 6 -1 6 -7 1 -15 -5 -18 -13z"/>
<path d="M2600 2571 c0 -5 5 -13 10 -16 6 -3 10 -2 10 4 0 5 -4 13 -10 16 -5
3 -10 2 -10 -4z"/>
<path d="M2477 2542 c4 -21 2 -24 -6 -12 -6 8 -11 10 -11 4 0 -6 7 -17 16 -24
12 -11 15 -11 12 1 -2 8 3 13 10 11 10 -2 10 2 2 17 -16 31 -27 33 -23 3z"/>
<path d="M945 2550 c-3 -5 1 -10 9 -10 9 0 16 5 16 10 0 6 -4 10 -9 10 -6 0
-13 -4 -16 -10z"/>
<path d="M1076 2538 c-9 -12 -12 -24 -8 -27 4 -3 10 -10 13 -15 4 -5 12 1 19
14 10 18 9 21 -1 15 -9 -6 -11 -2 -7 13 8 28 3 28 -16 0z"/>
<path d="M2445 2500 c3 -5 8 -10 11 -10 2 0 4 5 4 10 0 6 -5 10 -11 10 -5 0
-7 -4 -4 -10z"/>
<path d="M970 2470 c0 -5 5 -10 11 -10 5 0 7 5 4 10 -3 6 -8 10 -11 10 -2 0
-4 -4 -4 -10z"/>
<path d="M2515 2461 c-3 -5 -1 -12 5 -16 5 -3 10 1 10 9 0 18 -6 21 -15 7z"/>
<path d="M2600 2451 c0 -11 5 -23 11 -27 16 -9 30 18 17 33 -15 19 -28 16 -28
-6z m17 -13 c-3 -8 -6 -5 -6 6 -1 11 2 17 5 13 3 -3 4 -12 1 -19z"/>
<path d="M946 2451 c-3 -5 1 -11 9 -14 9 -4 12 -1 8 9 -6 16 -10 17 -17 5z"/>
<path d="M1041 2444 c0 -11 3 -14 6 -6 3 7 2 16 -1 19 -3 4 -6 -2 -5 -13z"/>
<path d="M996 2435 c4 -8 8 -15 10 -15 2 0 4 7 4 15 0 8 -4 15 -10 15 -5 0 -7
-7 -4 -15z"/>
<path d="M930 2421 c0 -14 29 -21 36 -9 4 7 3 8 -4 4 -7 -4 -12 -2 -12 3 0 6
-4 11 -10 11 -5 0 -10 -4 -10 -9z"/>
<path d="M2464 2406 c-4 -10 -3 -21 2 -25 6 -3 10 -35 9 -71 -1 -97 28 -145
74 -120 17 9 21 8 21 -5 0 -9 5 -13 10 -10 14 9 12 -2 -6 -29 -11 -18 -12 -26
-3 -32 7 -4 9 -3 6 3 -4 6 3 22 14 37 11 14 16 26 10 26 -6 0 -11 7 -11 15 0
8 -4 15 -10 15 -5 0 -7 8 -4 18 4 10 -3 7 -18 -10 -13 -16 -26 -28 -29 -28 -3
0 -15 14 -27 30 -19 25 -21 34 -11 51 8 16 8 27 -1 45 -11 19 -9 28 10 61 12
21 16 33 9 26 -10 -10 -15 -9 -25 5 -12 16 -13 16 -20 -2z"/>
<path d="M2573 2413 c-7 -2 -13 -12 -13 -21 -1 -15 -3 -14 -15 2 -8 11 -15 15
-15 9 0 -6 9 -21 20 -34 l19 -24 7 32 c4 19 11 30 17 26 6 -3 7 -1 3 5 -4 7
-8 12 -9 11 -1 0 -8 -3 -14 -6z"/>
<path d="M979 2391 c7 -5 11 -13 7 -19 -3 -6 -3 -13 2 -16 8 -4 9 -88 2 -111
-7 -22 13 -63 35 -75 20 -11 26 -10 40 4 20 20 26 20 19 1 -4 -8 -2 -15 4 -15
16 0 20 35 6 48 -11 10 -17 7 -30 -13 -21 -32 -24 -31 -51 7 -21 30 -21 33 -6
50 14 15 14 22 4 42 -12 21 -10 28 10 55 27 36 35 38 49 11 6 -11 15 -20 21
-20 6 0 7 5 3 11 -3 6 -1 15 6 19 13 8 5 30 -11 30 -6 0 -7 -5 -3 -11 5 -9 -1
-10 -20 -5 -22 5 -32 2 -49 -16 -17 -19 -19 -20 -13 -4 6 19 -7 36 -29 36 -5
0 -4 -4 4 -9z"/>
<path d="M2518 2353 c6 -2 12 -12 12 -20 0 -13 -3 -13 -15 -3 -13 11 -14 10
-9 -4 6 -16 25 -21 37 -10 9 10 -12 44 -26 43 -9 0 -9 -2 1 -6z"/>
<path d="M1035 2330 c-4 -6 1 -7 11 -3 12 4 15 2 12 -8 -3 -8 -11 -13 -17 -11
-6 1 -11 -2 -11 -8 0 -16 27 -11 34 6 10 27 -14 48 -29 24z"/>
<path d="M2570 2325 c0 -8 -4 -15 -10 -15 -15 0 -12 -26 4 -39 11 -9 13 -4 13
29 0 22 -1 40 -3 40 -2 0 -4 -7 -4 -15z"/>
<path d="M2606 2332 c-3 -6 -1 -14 5 -17 15 -10 25 3 12 16 -7 7 -13 7 -17 1z"/>
<path d="M7658 2315 c-9 -16 -21 -49 -28 -71 l-12 -41 -31 15 c-28 14 -33 14
-66 -4 -29 -15 -45 -37 -83 -114 -55 -111 -92 -150 -143 -150 -26 0 -39 6 -51
26 -27 41 -10 72 52 95 58 22 101 60 111 97 8 34 -29 66 -66 57 -37 -8 -92
-73 -120 -141 -36 -87 -68 -134 -91 -134 -32 0 -33 20 -6 106 14 43 26 93 26
111 0 63 -55 82 -109 38 -29 -25 -30 -26 -41 -6 -15 29 -55 37 -85 17 -22 -14
-25 -15 -25 -1 0 8 -4 15 -10 15 -5 0 -10 -1 -10 -3 0 -2 -22 -65 -50 -141
-52 -143 -58 -170 -38 -164 6 2 22 34 34 71 41 122 103 212 141 205 30 -5 27
-50 -11 -159 -20 -56 -36 -104 -36 -106 0 -2 6 -3 14 -3 9 0 24 30 41 80 27
80 76 165 106 183 26 16 49 1 49 -31 0 -16 -9 -55 -20 -87 -24 -69 -26 -128
-5 -145 20 -16 61 -5 86 24 l20 23 29 -28 c42 -43 118 -35 160 16 11 14 15 12
31 -15 23 -37 57 -39 96 -6 l27 24 11 -22 c14 -29 49 -32 90 -7 34 20 35 20
45 1 16 -29 57 -25 91 9 16 16 29 24 29 17 0 -19 34 -46 57 -46 11 0 32 11 47
25 33 30 32 30 39 5 11 -41 66 -38 110 6 19 18 27 22 27 12 0 -21 32 -48 57
-48 11 0 32 11 46 24 l26 24 16 -24 c19 -30 44 -31 79 -3 35 27 81 118 68 131
-7 7 -18 -4 -32 -33 -28 -56 -59 -89 -82 -89 -28 0 -23 35 22 161 22 62 40
114 40 116 0 2 -7 3 -15 3 -8 0 -15 -7 -15 -15 0 -19 -9 -19 -34 0 -50 38
-100 -3 -160 -130 -25 -52 -54 -103 -66 -115 -24 -24 -58 -26 -67 -4 -3 8 20
92 52 185 31 94 55 173 52 176 -10 9 -25 -6 -31 -30 -3 -13 -12 -40 -21 -60
-15 -36 -16 -37 -38 -22 -32 22 -52 19 -91 -15 -22 -20 -46 -58 -66 -108 -38
-92 -74 -142 -101 -142 -29 0 -25 39 16 154 37 104 41 126 26 126 -5 0 -24
-37 -41 -82 -17 -46 -36 -96 -42 -111 -25 -65 -97 -111 -112 -71 -3 9 19 90
50 180 30 90 54 172 52 181 -3 14 -7 12 -20 -12z m-282 -129 c9 -25 -14 -53
-61 -76 -52 -25 -62 -22 -45 12 32 62 93 98 106 64z m203 5 c22 -14 16 -52
-21 -131 -38 -82 -66 -114 -95 -108 -27 5 -23 99 7 158 39 79 73 104 109 81z
m401 -6 c8 -9 10 -27 6 -47 -8 -42 -76 -169 -97 -181 -71 -44 -62 116 12 206
32 39 59 47 79 22z m278 3 c20 -20 14 -50 -27 -135 -39 -80 -68 -110 -97 -99
-36 14 0 162 53 218 29 30 52 35 71 16z"/>
<path d="M6306 2298 c-7 -18 -16 -41 -19 -50 -4 -12 -17 -18 -37 -18 -20 0
-30 -5 -30 -15 0 -9 10 -15 26 -15 21 0 25 -4 19 -17 -24 -61 -65 -194 -65
-210 0 -25 30 -53 58 -53 11 0 33 11 48 24 l28 23 19 -23 c23 -30 65 -31 100
-4 l26 21 11 -21 c24 -46 90 -13 128 64 29 57 25 98 -4 47 -42 -74 -61 -96
-82 -99 -19 -3 -22 1 -22 27 0 16 16 74 35 127 19 53 35 103 35 110 0 20 -20
17 -27 -3 -39 -113 -88 -224 -107 -242 -15 -14 -33 -21 -48 -19 -35 5 -34 45
3 145 39 110 46 137 30 132 -6 -2 -31 -53 -55 -112 -44 -110 -85 -167 -118
-167 -38 0 -33 44 24 197 17 46 22 52 51 55 39 4 42 22 5 26 l-27 3 15 41 c17
48 17 58 3 58 -5 0 -16 -15 -23 -32z"/>
<path d="M941 2311 c-10 -7 -10 -10 -1 -16 6 -4 16 -3 22 3 13 13 -4 23 -21
13z"/>
<path d="M1080 2296 c-10 -20 -10 -28 2 -45 14 -20 15 -18 14 24 -1 25 -1 45
-2 45 0 0 -6 -11 -14 -24z"/>
<path d="M2150 2290 c0 -5 5 -10 11 -10 5 0 7 5 4 10 -3 6 -8 10 -11 10 -2 0
-4 -4 -4 -10z"/>
<path d="M7777 2293 c-3 -5 -2 -15 3 -22 10 -17 43 -6 38 12 -6 15 -34 22 -41
10z"/>
<path d="M1565 2281 c-3 -5 -1 -12 5 -16 5 -3 10 1 10 9 0 18 -6 21 -15 7z"/>
<path d="M1800 2280 c0 -5 5 -10 11 -10 5 0 7 5 4 10 -3 6 -8 10 -11 10 -2 0
-4 -4 -4 -10z"/>
<path d="M1985 2280 c-3 -5 1 -10 10 -10 9 0 13 5 10 10 -3 6 -8 10 -10 10 -2
0 -7 -4 -10 -10z"/>
<path d="M2052 2253 c7 -18 18 -35 25 -38 15 -5 7 14 -21 50 -14 19 -15 18 -4
-12z"/>
<path d="M2111 2263 c-7 -8 -11 -16 -8 -19 2 -2 10 2 17 11 17 20 9 27 -9 8z"/>
<path d="M2210 2270 c0 -5 5 -10 11 -10 5 0 7 5 4 10 -3 6 -8 10 -11 10 -2 0
-4 -4 -4 -10z"/>
<path d="M2514 2266 c-9 -24 12 -44 28 -28 10 10 8 16 -5 29 -15 15 -17 15
-23 -1z m26 -17 c0 -5 -4 -9 -10 -9 -5 0 -10 7 -10 16 0 8 5 12 10 9 6 -3 10
-10 10 -16z"/>
<path d="M1346 2261 c-4 -5 -2 -12 3 -15 5 -4 12 -2 15 3 4 5 2 12 -3 15 -5 4
-12 2 -15 -3z"/>
<path d="M1469 2253 c-13 -16 -12 -17 4 -4 9 7 17 15 17 17 0 8 -8 3 -21 -13z"/>
<path d="M1925 2257 c-23 -26 -26 -37 -11 -31 11 4 16 0 16 -10 0 -9 5 -16 10
-16 6 0 10 7 10 15 0 8 -5 15 -11 15 -6 0 -8 9 -4 20 7 23 5 25 -10 7z"/>
<path d="M2150 2252 c-46 -56 -47 -56 -23 -42 12 8 26 24 32 37 13 28 10 29
-9 5z"/>
<path d="M2425 2260 c-3 -5 1 -10 10 -10 9 0 13 5 10 10 -3 6 -8 10 -10 10 -2
0 -7 -4 -10 -10z"/>
<path d="M1032 2248 c-7 -7 -12 -17 -12 -22 0 -6 5 -3 11 8 9 15 13 16 20 5 7
-11 9 -10 9 4 0 20 -11 22 -28 5z"/>
<path d="M1717 2242 c-21 -23 -22 -39 -2 -22 12 10 15 10 15 -2 0 -8 7 -15 15
-15 8 0 15 9 15 19 0 10 -6 17 -12 16 -7 -2 -12 3 -10 10 3 17 -2 15 -21 -6z"/>
<path d="M2610 2250 c0 -5 7 -10 15 -10 8 0 15 5 15 10 0 6 -7 10 -15 10 -8 0
-15 -4 -15 -10z"/>
<path d="M1130 2240 c0 -5 5 -10 10 -10 6 0 10 5 10 10 0 6 -4 10 -10 10 -5 0
-10 -4 -10 -10z"/>
<path d="M1294 2238 c-4 -7 -15 -24 -23 -38 -15 -23 -15 -24 2 -11 9 7 17 9
17 5 0 -5 9 -15 21 -22 19 -12 20 -12 14 10 -4 13 -12 26 -17 29 -5 3 -6 13
-2 22 7 20 -1 23 -12 5z"/>
<path d="M940 2230 c0 -5 5 -10 10 -10 6 0 10 5 10 10 0 6 -4 10 -10 10 -5 0
-10 -4 -10 -10z"/>
<path d="M1850 2220 c0 -5 5 -10 11 -10 5 0 7 5 4 10 -3 6 -8 10 -11 10 -2 0
-4 -4 -4 -10z"/>
<path d="M2041 2214 c0 -11 3 -14 6 -6 3 7 2 16 -1 19 -3 4 -6 -2 -5 -13z"/>
<path d="M5321 2113 c-43 -119 -45 -148 -15 -177 18 -19 65 -21 82 -4 15 15
16 3 2 -23 -6 -10 -19 -19 -29 -19 -28 0 -109 -30 -122 -46 -18 -21 -13 -76 7
-91 47 -35 108 -2 143 78 15 32 29 46 68 63 52 25 92 65 123 127 24 46 24 49
5 49 -8 0 -15 -4 -15 -8 0 -34 -111 -152 -142 -152 -7 0 29 110 76 234 18 46
23 73 16 80 -10 10 -15 1 -69 -139 -43 -113 -92 -160 -129 -123 -18 18 -15 39
23 138 19 50 35 100 35 111 0 45 -21 11 -59 -98z m49 -260 c0 -17 -40 -72 -59
-82 -37 -21 -71 12 -51 49 14 26 110 54 110 33z"/>
<path d="M5863 2217 c-52 -29 -103 -132 -106 -213 -3 -83 42 -110 100 -60 l27
24 11 -22 c12 -25 45 -32 74 -16 22 11 81 105 81 128 0 25 -20 10 -41 -30 -28
-56 -48 -78 -71 -78 -27 0 -23 45 13 148 39 110 44 132 30 132 -6 0 -14 -7
-17 -15 -5 -13 -8 -13 -27 0 -26 18 -45 18 -74 2z m68 -41 c9 -20 5 -37 -28
-107 -43 -90 -71 -123 -100 -117 -15 3 -18 13 -17 53 4 123 110 248 145 171z"/>
<path d="M1516 2211 c-4 -7 -5 -15 -2 -18 9 -9 19 4 14 18 -4 11 -6 11 -12 0z"/>
<path d="M2145 2211 c-6 -11 33 -36 43 -27 3 3 0 6 -6 6 -7 0 -12 7 -12 15 0
17 -16 20 -25 6z"/>
<path d="M2330 2199 c0 -5 5 -7 10 -4 6 3 10 8 10 11 0 2 -4 4 -10 4 -5 0 -10
-5 -10 -11z"/>
<path d="M2470 2190 c0 -11 -5 -20 -12 -20 -6 0 -8 -3 -5 -6 4 -4 13 -2 20 4
8 7 17 8 22 4 4 -4 2 3 -4 16 -14 27 -21 28 -21 2z"/>
<path d="M983 2178 c3 -9 1 -18 -6 -21 -8 -2 -8 -5 1 -11 7 -4 12 -2 12 4 0 6
5 8 10 5 17 -10 11 12 -7 26 -15 12 -16 12 -10 -3z"/>
<path d="M2240 2181 c0 -6 4 -13 10 -16 6 -3 7 1 4 9 -7 18 -14 21 -14 7z"/>
<path d="M1563 2155 c-3 -9 -3 -18 -1 -21 3 -3 8 4 11 16 6 23 -1 27 -10 5z"/>
<path d="M1686 2161 c-4 -7 -5 -15 -2 -18 9 -9 19 4 14 18 -4 11 -6 11 -12 0z"/>
<path d="M1880 2154 c0 -8 5 -12 10 -9 6 4 8 11 5 16 -9 14 -15 11 -15 -7z"/>
<path d="M2097 2155 c-4 -8 -2 -17 3 -20 6 -4 10 3 10 14 0 25 -6 27 -13 6z"/>
<path d="M2194 2155 c-3 -8 -4 -20 -1 -27 3 -7 6 -3 6 9 1 12 7 24 14 26 9 4
9 6 -1 6 -7 1 -15 -6 -18 -14z"/>
<path d="M1466 2151 c-4 -7 -5 -15 -2 -18 9 -9 19 4 14 18 -4 11 -6 11 -12 0z"/>
<path d="M2413 2149 c-15 -15 -5 -39 16 -38 10 0 11 2 4 6 -7 2 -13 12 -13 20
0 13 3 13 15 3 13 -11 14 -10 9 4 -7 19 -16 20 -31 5z"/>
<path d="M2615 2150 c-3 -5 -1 -10 4 -10 6 0 11 -4 11 -10 0 -5 -8 -6 -17 -3
-16 6 -16 5 -4 -10 16 -20 31 -13 31 13 0 22 -16 35 -25 20z"/>
<path d="M1133 2132 c-8 -13 -7 -21 4 -31 13 -12 16 -12 24 0 12 19 11 25 -4
37 -9 8 -16 6 -24 -6z m27 -12 c0 -5 -4 -10 -10 -10 -5 0 -10 5 -10 10 0 6 5
10 10 10 6 0 10 -4 10 -10z"/>
<path d="M1344 2137 c3 -10 6 -21 6 -23 0 -12 29 -2 34 12 5 14 4 15 -8 5 -11
-10 -17 -8 -26 6 -11 17 -11 17 -6 0z"/>
<path d="M2310 2134 c0 -8 5 -12 10 -9 6 3 10 10 10 16 0 5 -4 9 -10 9 -5 0
-10 -7 -10 -16z"/>
<path d="M2520 2130 c0 -19 3 -21 12 -12 9 9 9 15 0 24 -9 9 -12 7 -12 -12z"/>
<path d="M941 2126 c-8 -9 -11 -19 -7 -23 3 -3 6 -1 6 5 0 7 5 12 11 12 6 0 8
-9 4 -22 -6 -19 -5 -21 6 -11 9 9 10 19 3 34 -9 19 -11 20 -23 5z"/>
<path d="M1251 2124 c0 -11 3 -14 6 -6 3 7 2 16 -1 19 -3 4 -6 -2 -5 -13z"/>
<path d="M2215 2130 c-3 -5 -1 -10 4 -10 6 0 11 5 11 10 0 6 -2 10 -4 10 -3 0
-8 -4 -11 -10z"/>
<path d="M2467 2114 c-10 -13 -14 -24 -10 -24 9 0 36 40 31 45 -2 2 -11 -8
-21 -21z"/>
<path d="M1040 2114 c0 -8 5 -12 10 -9 6 4 8 11 5 16 -9 14 -15 11 -15 -7z"/>
<path d="M1087 2123 c-10 -9 -9 -23 1 -23 5 0 9 7 9 15 0 17 -1 18 -10 8z"/>
<path d="M1760 2122 c0 -7 -7 -12 -16 -12 -8 0 -12 -4 -9 -10 9 -14 -19 -12
-33 2 -7 7 -12 10 -12 7 0 -3 14 -18 31 -35 19 -18 28 -22 24 -11 -4 9 -3 17
3 17 10 0 24 41 17 49 -3 2 -5 -1 -5 -7z"/>
<path d="M1834 2117 c3 -10 6 -25 6 -33 0 -9 4 -13 9 -10 5 4 11 0 14 -6 2 -7
6 -11 9 -8 3 3 -6 21 -20 40 -14 19 -22 27 -18 17z"/>
<path d="M2025 2120 c-3 -5 -1 -10 4 -10 6 0 11 5 11 10 0 6 -2 10 -4 10 -3 0
-8 -4 -11 -10z"/>
<path d="M2239 2113 c-13 -16 -12 -17 4 -4 16 13 21 21 13 21 -2 0 -10 -8 -17
-17z"/>
<path d="M1860 2099 c0 -5 5 -7 10 -4 6 3 10 8 10 11 0 2 -4 4 -10 4 -5 0 -10
-5 -10 -11z"/>
<path d="M1923 2096 c5 -16 27 -19 27 -3 0 7 -7 14 -15 14 -9 0 -14 -5 -12
-11z"/>
<path d="M2042 2098 c-14 -14 -16 -28 -3 -28 9 0 24 30 18 36 -2 2 -9 -2 -15
-8z"/>
<path d="M1516 2085 c7 -18 -7 -20 -26 -2 -11 9 -11 8 0 -8 8 -11 21 -26 29
-34 12 -13 13 -12 7 7 -5 13 -3 22 3 22 6 0 11 7 11 15 0 8 -7 15 -15 15 -9 0
-12 -6 -9 -15z"/>
<path d="M1300 2081 c0 -5 7 -14 15 -21 12 -10 15 -10 15 3 0 8 -7 17 -15 21
-8 3 -15 2 -15 -3z"/>
<path d="M1417 2083 c-4 -3 -7 -11 -7 -17 0 -6 5 -5 12 2 6 6 9 14 7 17 -3 3
-9 2 -12 -2z"/>
<path d="M1902 2078 c5 -15 28 -23 28 -10 0 5 -7 13 -16 16 -10 4 -14 1 -12
-6z"/>
<path d="M2130 2060 c12 -17 23 -30 25 -30 10 0 -19 49 -32 54 -9 4 -7 -4 7
-24z"/>
<path d="M2150 2080 c0 -5 5 -10 11 -10 5 0 7 5 4 10 -3 6 -8 10 -11 10 -2 0
-4 -4 -4 -10z"/>
<path d="M2090 2046 c0 -2 7 -7 16 -10 8 -3 12 -2 9 4 -6 10 -25 14 -25 6z"/>
<path d="M1576 2032 c-3 -6 -1 -14 5 -17 15 -10 25 3 12 16 -7 7 -13 7 -17 1z"/>
<path d="M1788 2028 c9 -9 15 -9 24 0 9 9 7 12 -12 12 -19 0 -21 -3 -12 -12z"/>
<path d="M1980 2030 c0 -5 7 -10 16 -10 8 0 12 5 9 10 -3 6 -10 10 -16 10 -5
0 -9 -4 -9 -10z"/>
<path d="M2516 2031 c-3 -5 1 -12 10 -15 8 -3 12 -11 9 -16 -5 -8 -11 -7 -21
1 -12 10 -13 9 -8 -5 8 -20 30 -21 38 0 7 17 -19 50 -28 35z"/>
<path d="M2200 2020 c0 -5 5 -10 10 -10 6 0 10 5 10 10 0 6 -4 10 -10 10 -5 0
-10 -4 -10 -10z"/>
<path d="M1036 2005 c-6 -18 2 -45 15 -45 4 0 14 10 20 23 11 20 11 21 -5 8
-9 -8 -20 -10 -24 -6 -4 4 -1 10 6 12 14 5 17 23 3 23 -5 0 -11 -7 -15 -15z"/>
<path d="M1360 2010 c0 -5 5 -10 10 -10 6 0 10 5 10 10 0 6 -4 10 -10 10 -5 0
-10 -4 -10 -10z"/>
<path d="M2410 2010 c0 -5 5 -10 10 -10 6 0 10 5 10 10 0 6 -4 10 -10 10 -5 0
-10 -4 -10 -10z"/>
<path d="M2610 2010 c0 -5 7 -10 16 -10 8 0 12 5 9 10 -3 6 -10 10 -16 10 -5
0 -9 -4 -9 -10z"/>
<path d="M1145 2000 c-3 -5 1 -10 9 -10 9 0 16 5 16 10 0 6 -4 10 -9 10 -6 0
-13 -4 -16 -10z"/>
<path d="M2360 1999 c0 -5 5 -7 10 -4 6 3 10 8 10 11 0 2 -4 4 -10 4 -5 0 -10
-5 -10 -11z"/>
<path d="M945 1990 c3 -5 10 -10 16 -10 5 0 9 5 9 10 0 6 -7 10 -16 10 -8 0
-12 -4 -9 -10z"/>
</g>
</svg>
